<?xml version="1.0" encoding="utf-8"?>
<!-- Generator: Adobe Illustrator 19.2.1, SVG Export Plug-In . SVG Version: 6.00 Build 0)  -->
<svg version="1.1" id="Layer_1" xmlns="http://www.w3.org/2000/svg" xmlns:xlink="http://www.w3.org/1999/xlink" x="0px" y="0px"
	 viewBox="0 0 47 60" style="enable-background:new 0 0 47 60;" xml:space="preserve">
<style type="text/css">
	.st0{fill:#545758;}
	.st1{fill:#48D9B3;}
	.st2{fill:none;stroke:#48D9B3;stroke-miterlimit:10;}
</style>
<g>
	<path class="st0" d="M32.4,0H0v60h47V14.6L32.4,0z M33,3.4L43.6,14H33V3.4z M2,58V2h29v14h14v42H2z M2,58"/>
	<g>
		<path class="st1" d="M24.6,32c-0.9-0.3-1.7-1.1-2.1-2c-0.4-0.9-0.4-2,0.1-2.9c0.2-0.5,0-0.8-0.2-1c-0.1-0.1-0.5-0.4-1-0.2
			c-0.9,0.4-1.9,0.5-2.9,0.1c-0.9-0.4-1.6-1.1-2-2.1c-0.2-0.5-0.6-0.6-0.8-0.6c-0.2,0-0.6,0.1-0.8,0.6c-0.3,0.9-1,1.7-2,2.1
			c-0.9,0.4-2,0.4-2.9-0.1c-0.5-0.2-0.8,0-1,0.2c-0.1,0.1-0.4,0.5-0.2,1c0.4,0.9,0.5,1.9,0.1,2.9c-0.4,0.9-1.1,1.6-2.1,2
			c-0.5,0.2-0.6,0.6-0.6,0.8c0,0.2,0.1,0.6,0.6,0.8c0.9,0.3,1.7,1,2.1,2c0.4,0.9,0.4,2-0.1,2.9c-0.2,0.5,0,0.8,0.2,1
			c0.1,0.1,0.4,0.3,0.8,0.2l0.3-0.1c0.4-0.2,0.9-0.3,1.4-0.3c0,0,0,0,0,0c0.1,0,0.1,0,0.2,0c0.2,0,0.3,0,0.5,0.1
			c0.2,0,0.4,0.1,0.6,0.2c0,0,0.1,0,0.1,0c0.1,0,0.1,0.1,0.2,0.1c0.2,0.1,0.3,0.2,0.5,0.3c0.2,0.1,0.4,0.3,0.5,0.4c0,0,0,0,0,0
			c0.3,0.4,0.6,0.8,0.8,1.2c0.2,0.5,0.6,0.6,0.8,0.6c0.2,0,0.6-0.1,0.8-0.6c0.2-0.5,0.4-0.9,0.8-1.2c0,0,0,0,0.1,0
			c0.1-0.2,0.3-0.3,0.5-0.4c0.1-0.1,0.3-0.2,0.5-0.3c0.1,0,0.1-0.1,0.2-0.1c0.2-0.1,0.5-0.2,0.7-0.2c0.1,0,0.2,0,0.3,0
			c0.1,0,0.3,0,0.4,0c0.1,0,0.2,0,0.3,0c0.1,0,0.3,0,0.4,0.1c0.1,0,0.2,0.1,0.3,0.1c0.1,0,0.3,0.1,0.4,0.1l0.3,0.1
			c0.4,0.1,0.6-0.1,0.7-0.2c0.1-0.1,0.4-0.5,0.2-1c-0.4-0.9-0.5-1.9-0.1-2.9c0.4-0.9,1.1-1.6,2.1-2c0.5-0.2,0.6-0.6,0.6-0.8
			C25.2,32.7,25.1,32.2,24.6,32z"/>
		<path class="st2" d="M24.6,32c-0.9-0.3-1.7-1.1-2.1-2c-0.4-0.9-0.4-2,0.1-2.9c0.2-0.5,0-0.8-0.2-1c-0.1-0.1-0.5-0.4-1-0.2
			c-0.9,0.4-1.9,0.5-2.9,0.1c-0.9-0.4-1.6-1.1-2-2.1c-0.2-0.5-0.6-0.6-0.8-0.6c-0.2,0-0.6,0.1-0.8,0.6c-0.3,0.9-1,1.7-2,2.1
			c-0.9,0.4-2,0.4-2.9-0.1c-0.5-0.2-0.8,0-1,0.2c-0.1,0.1-0.4,0.5-0.2,1c0.4,0.9,0.5,1.9,0.1,2.9c-0.4,0.9-1.1,1.6-2.1,2
			c-0.5,0.2-0.6,0.6-0.6,0.8c0,0.2,0.1,0.6,0.6,0.8c0.9,0.3,1.7,1,2.1,2c0.4,0.9,0.4,2-0.1,2.9c-0.2,0.5,0,0.8,0.2,1
			c0.1,0.1,0.4,0.3,0.8,0.2l0.3-0.1c0.4-0.2,0.9-0.3,1.4-0.3c0,0,0,0,0,0c0.1,0,0.1,0,0.2,0c0.2,0,0.3,0,0.5,0.1
			c0.2,0,0.4,0.1,0.6,0.2c0,0,0.1,0,0.1,0c0.1,0,0.1,0.1,0.2,0.1c0.2,0.1,0.3,0.2,0.5,0.3c0.2,0.1,0.4,0.3,0.5,0.4c0,0,0,0,0,0
			c0.3,0.4,0.6,0.8,0.8,1.2c0.2,0.5,0.6,0.6,0.8,0.6c0.2,0,0.6-0.1,0.8-0.6c0.2-0.5,0.4-0.9,0.8-1.2c0,0,0,0,0.1,0
			c0.1-0.2,0.3-0.3,0.5-0.4c0.1-0.1,0.3-0.2,0.5-0.3c0.1,0,0.1-0.1,0.2-0.1c0.2-0.1,0.5-0.2,0.7-0.2c0.1,0,0.2,0,0.3,0
			c0.1,0,0.3,0,0.4,0c0.1,0,0.2,0,0.3,0c0.1,0,0.3,0,0.4,0.1c0.1,0,0.2,0.1,0.3,0.1c0.1,0,0.3,0.1,0.4,0.1l0.3,0.1
			c0.4,0.1,0.6-0.1,0.7-0.2c0.1-0.1,0.4-0.5,0.2-1c-0.4-0.9-0.5-1.9-0.1-2.9c0.4-0.9,1.1-1.6,2.1-2c0.5-0.2,0.6-0.6,0.6-0.8
			C25.2,32.7,25.1,32.2,24.6,32z"/>
	</g>
	<path class="st1" d="M19.7,42c-0.1,0-0.2,0.1-0.2,0.2c-0.1,0.1-0.2,0.2-0.2,0.3c-0.5,1.4-1.8,2.3-3.3,2.3c-1.5,0-2.8-0.9-3.3-2.3
		c-0.1-0.2-0.1-0.3-0.2-0.3C12.3,42,12.2,42,12.1,42c0,0-0.1,0-0.2,0c0,0,0,0,0,0v10.3l4-4l4,4V41.9c0,0,0,0,0,0
		C19.8,41.9,19.7,42,19.7,42z"/>
</g>
</svg>
