<?xml version="1.0" encoding="utf-8"?>
<!-- Generator: Adobe Illustrator 20.1.0, SVG Export Plug-In . SVG Version: 6.00 Build 0)  -->
<svg version="1.1" id="Layer_1" xmlns="http://www.w3.org/2000/svg" xmlns:xlink="http://www.w3.org/1999/xlink" x="0px" y="0px"
	 viewBox="0 0 73.6 60" style="enable-background:new 0 0 73.6 60;" xml:space="preserve">
<style type="text/css">
	.st0{fill:none;}
	.st1{fill:#4A4A49;stroke:#FFFFFF;stroke-width:2;stroke-miterlimit:10;}
	.st2{fill:#3AE0C4;}
	.st3{fill:#4A4A49;}
</style>
<path class="st0" d="M37,38.9c-10.2,0-16,8.2-18,11.7v0.1c5.5,1.8,11.6,2.8,18,2.8c6.3,0,12.5-1,18-2.8v-0.1
	C52.9,47.1,47.2,38.9,37,38.9z"/>
<g>
	<g>
		<g>
			<path class="st1" d="M47.7,13.3h7.3c0.2,0,0.3,0.1,0.3,0.3l0,7.7c0,0.3,0.4,0.4,0.5,0.2l3.3-5.1c0,0,0-0.1,0-0.2v-4.9
				c0-0.4-0.2-0.8-0.4-1L49,0.4C48.8,0.2,48.4,0,48,0H17.9c-0.2,0-0.5,0-0.7,0c-0.1,0-0.1,0-0.2,0h-2c-0.1,0-0.3,0.1-0.3,0.2
				c-0.1,0.4-0.1,1,0,1.9c0,0,0,0,0,0L14.5,60c0,0,0.1,0,0.1,0h2.5c0,0,0,0,0.1,0c0.2,0,0.5,0,0.7,0h37.7h3.2c0.2,0,0.3-0.1,0.3-0.3
				l0-17.3c0-0.3-0.4-0.4-0.5-0.2l-3.3,5.1c0,0,0,0.1,0,0.2l0,8.3c0,0.2-0.1,0.3-0.3,0.3H18.6c-0.2,0-0.3-0.1-0.3-0.3V4.2
				c0-0.2,0.1-0.3,0.3-0.3H46c0.2,0,0.3,0.1,0.3,0.3v7.6C46.2,12.6,46.9,13.3,47.7,13.3z"/>
			<path class="st2" d="M63.3,27.9l-1.6-1.1c-0.3-0.2-0.6-0.1-0.8,0.2l-8.5,13.3l-1.6-1.1l8.5-13.3c0.2-0.3,0.1-0.6-0.2-0.8
				l-1.6-1.1c-0.3-0.2-0.6-0.1-0.8,0.2L44.1,44.1C44,44.2,44,44.3,44,44.4l-0.3,6.9c0,0.2,0.1,0.4,0.3,0.5c0.2,0.1,0.4,0.1,0.6,0
				l6.1-3.1c0.1,0,0.2-0.1,0.2-0.2l12.8-19.9C63.7,28.4,63.6,28.1,63.3,27.9z"/>
			<path class="st3" d="M68.6,19.8l-5.7-3.8c-0.3-0.2-0.6-0.1-0.8,0.2l-3.9,6c-0.2,0.3-0.1,0.6,0.2,0.8l5.7,3.8
				c0.3,0.2,0.6,0.1,0.8-0.2l3.9-6C68.9,20.3,68.8,19.9,68.6,19.8z"/>
			<path class="st2" d="M23.9,12.5h11c0.8,0,1.4-0.6,1.4-1.4s-0.6-1.4-1.4-1.4h-11c-0.8,0-1.4,0.6-1.4,1.4S23.1,12.5,23.9,12.5z"/>
			<path class="st2" d="M44.7,18.2c0-0.8-0.6-1.4-1.4-1.4H23.9c-0.8,0-1.4,0.6-1.4,1.4s0.6,1.4,1.4,1.4h19.4
				C44,19.7,44.7,19,44.7,18.2z"/>
			<path class="st2" d="M23.9,26.8h11c0.8,0,1.4-0.6,1.4-1.4S35.6,24,34.8,24h-11c-0.8,0-1.4,0.6-1.4,1.4S23.1,26.8,23.9,26.8z"/>
			<path class="st2" d="M23.9,33.9h11c0.8,0,1.4-0.6,1.4-1.4c0-0.8-0.6-1.4-1.4-1.4h-11c-0.8,0-1.4,0.6-1.4,1.4
				C22.5,33.3,23.1,33.9,23.9,33.9z"/>
			<path class="st2" d="M24.5,52.4c-0.3,0.4,0.2,0.9,0.5,0.5c0.9-1.1,1.6-2.4,2.2-3.7c0.4,0.2,0.9,0.2,1.3,0
				c0.6-0.2,1.1-0.7,1.5-1.1c0.3-0.2,0.6-0.6,1-0.7c0.3,0,0.7,0.2,1,0.3c0.8,0.1,1.7-0.1,2.4-0.3c0.7-0.2,1.5-0.5,1.9-1.1
				c0.2-0.4-0.4-0.7-0.6-0.4c-0.3,0.5-1.1,0.7-1.7,0.8C33.4,47,32.6,47.1,32,47c-0.5-0.1-0.9-0.4-1.4-0.2c-0.7,0.3-1.2,1-1.8,1.4
				c-0.3,0.2-0.6,0.4-0.9,0.4c-0.1,0-0.3,0-0.3-0.1c0.1-0.2,0.1-0.4,0.2-0.5c0.7-1.7,1-3.5,1.3-5.3c0.2-0.9,0.4-2.4-0.9-2.5
				c-1.2-0.1-2.1,1.6-2.5,2.5c-0.3,0.8-0.4,1.7-0.3,2.6c0,0.5,0.2,1.1,0.3,1.6c-1.1,0.2-2.1,1.3-1.9,2.4c0.2,1.1,1.5,0.5,2,0.1
				c0.5-0.4,0.7-0.9,0.7-1.5c0.1,0.2,0.2,0.4,0.3,0.6C26.1,50,25.4,51.2,24.5,52.4z M25.7,48.4c-0.1,0.5-0.7,0.9-1.2,1
				c-0.4,0-0.1-0.6-0.1-0.8c0.2-0.5,0.8-0.8,1.3-0.9C25.8,47.9,25.7,48.1,25.7,48.4z M26.3,47c-0.1-0.6-0.3-1.1-0.3-1.7
				c-0.1-1,0.1-2,0.6-2.9c0.3-0.5,0.9-1.4,1.6-1.4c0.6-0.1,0.2,1.4,0.2,1.7c-0.2,0.9-0.3,1.8-0.5,2.7c-0.2,0.8-0.5,1.6-0.8,2.4
				C26.9,47.3,26.7,47.1,26.3,47z"/>
		</g>
	</g>
</g>
</svg>
