<svg xmlns="http://www.w3.org/2000/svg" width="70.563" height="73.44" viewBox="0 0 70.563 73.44">
  <defs>
    <style>
      .cls-1 {
        fill: #999;
        fill-rule: evenodd;
      }
    </style>
  </defs>
  <path id="icon-hdml.svg" class="cls-1" d="M677.175,2432.01h9.748a0.3,0.3,0,0,0,.277-0.3v-7.54a0.323,0.323,0,0,0-.312-0.32h-1.917a0.337,0.337,0,0,1-.337-0.31l-0.409-5.54a0.324,0.324,0,0,0-.336-0.3H683.4a0.32,0.32,0,0,1-.315-0.32l0-23.86a0.312,0.312,0,0,0-.312-0.3h-1.443a0.322,0.322,0,0,0-.325.3v23.86a0.315,0.315,0,0,1-.312.32H680.2a0.346,0.346,0,0,0-.343.3l-0.4,5.54a0.338,0.338,0,0,1-.343.31h-1.909a0.327,0.327,0,0,0-.318.32v7.54a0.3,0.3,0,0,0,.287.3m1.149,1.05v2.49a0.313,0.313,0,0,0,.315.31l6.81,0.01a0.326,0.326,0,0,0,.318-0.32v-2.49h-7.443Zm-60.253,0,0,2.49a0.327,0.327,0,0,0,.309.32h6.82a0.321,0.321,0,0,0,.314-0.32v-2.49h-7.446Zm8.566-9.21h-1.924a0.337,0.337,0,0,1-.334-0.3l-0.4-5.55a0.345,0.345,0,0,0-.34-0.31h-0.49a0.315,0.315,0,0,1-.315-0.31v-23.86a0.312,0.312,0,0,0-.318-0.3h-1.44a0.313,0.313,0,0,0-.315.3v23.86a0.313,0.313,0,0,1-.315.31h-0.493a0.34,0.34,0,0,0-.34.31l-0.4,5.55a0.34,0.34,0,0,1-.34.3h-1.92a0.323,0.323,0,0,0-.315.32v7.54a0.3,0.3,0,0,0,.286.3h9.739a0.309,0.309,0,0,0,.29-0.3v-7.54a0.322,0.322,0,0,0-.315-0.32m25.283,0.22a30.823,30.823,0,1,1,31.219-30.81,31.05,31.05,0,0,1-31.219,30.81m0-59.45a28.637,28.637,0,1,0,29,28.64,28.857,28.857,0,0,0-29-28.64" transform="translate(-616.625 -2362.44)"/>
</svg>
