<svg xmlns="http://www.w3.org/2000/svg" width="78.156" height="74.1" viewBox="0 0 78.156 74.1">
  <defs>
    <style>
      .cls-1 {
        fill: #999;
        fill-rule: evenodd;
      }
    </style>
  </defs>
  <path id="icon-sc.svg" class="cls-1" d="M858.6,2397.71h10.954a0.686,0.686,0,0,0,.375-0.05,0.283,0.283,0,0,0,.173-0.31v-34.43a0.337,0.337,0,0,0-.335-0.35H847.648a0.669,0.669,0,0,0-.37.05,0.287,0.287,0,0,0-.17.3v34.45a0.335,0.335,0,0,0,.331.34H858.6Zm-50.765-17.46a0.321,0.321,0,0,0,.33-0.32v-12.56a0.341,0.341,0,0,0-.327-0.34l-5.931.01a0.32,0.32,0,0,0-.323.33v12.56a0.317,0.317,0,0,0,.323.32h5.928Zm-0.311-14.52v-3.16h-5.191l0,3.16h5.187Zm44.63,70.94H811.392a7.875,7.875,0,0,1-7.794-7.85v-57.8h2.559l0,57.78a5.286,5.286,0,0,0,5.235,5.27h40.752a5.3,5.3,0,0,0,5.243-5.28c0.02-3.59,0-28.69,0-28.95h2.563c0,0.26.016,25.37,0,28.97a7.887,7.887,0,0,1-7.8,7.86m27.025-70.33h-7.613v4.2h7.613a4.092,4.092,0,0,0,0-4.2m-2.374,3.4a1.305,1.305,0,1,1,1.277-1.3,1.285,1.285,0,0,1-1.277,1.3" transform="translate(-801.594 -2362.56)"/>
</svg>
