<?xml version="1.0" encoding="utf-8"?>
<!-- Generator: Adobe Illustrator 16.0.3, SVG Export Plug-In . SVG Version: 6.00 Build 0)  -->
<!DOCTYPE svg PUBLIC "-//W3C//DTD SVG 1.1//EN" "http://www.w3.org/Graphics/SVG/1.1/DTD/svg11.dtd">
<svg version="1.1"
	 id="svg2" xmlns:dc="http://purl.org/dc/elements/1.1/" xmlns:cc="http://creativecommons.org/ns#" xmlns:rdf="http://www.w3.org/1999/02/22-rdf-syntax-ns#" xmlns:svg="http://www.w3.org/2000/svg"
	 xmlns="http://www.w3.org/2000/svg" xmlns:xlink="http://www.w3.org/1999/xlink" x="0px" y="0px" width="64px" height="64px"
	 viewBox="0 0 64 64" enable-background="new 0 0 64 64" xml:space="preserve">
<g id="g10" transform="matrix(1.3333333,0,0,-1.3333333,0,64)">
	<g id="g12" transform="scale(0.1)">
		<path id="path14" d="M456.13,480h-32.219c-13.213,0-23.906-10.701-23.906-23.87V77.885l31.985-56.008V8.012
			c0-4.424,3.596-8.013,8.005-8.013c4.417,0,8.013,3.589,8.013,8.013v13.865L480,77.885V456.13C480,469.299,469.299,480,456.13,480z
			 M416.016,408.01h47.959v-16.022h-47.959V408.01z M439.995,40.122L421.802,71.99h36.401L439.995,40.122z M463.975,88.008h-47.959
			v288.01h47.959V88.008z M416.016,423.98v32.15c0,4.34,3.516,7.852,7.852,7.852h32.227c4.38,0,7.881-3.512,7.881-7.852v-32.15
			H416.016z"/>
		<path id="path16" d="M0,480V0h368.013v480H0z M16.018,16.018v447.964h47.963V16.018H16.018z M351.987,463.982V16.018H79.999
			v447.964H351.987z"/>
		<path id="path18" d="M311.99,288.01v111.991H120V288.01H311.99z M136.022,383.979h159.994V303.98H136.022V383.979z"/>
		<path id="path20" d="M160.001,351.987h111.991v16.025H160.001V351.987z"/>
		<path id="path22" d="M160.001,319.999h111.991v16.022H160.001V319.999z"/>
	</g>
</g>
</svg>
