<svg xmlns="http://www.w3.org/2000/svg" width="590.996" height="590.996" viewBox="0 0 590.996 590.996">
  <path d="M388.736 112.0079c-3.8418 3.8418-6.6406 7.1621-6.6406 7.9434 0 .7817 29.1035 30.3418 81.2578 82.4956 44.665 44.6655 81.2578 81.7139 81.3877 82.2349.1953.8462-30.4717.9766-270.9902.9766H2.4998v21.4864h271.251c241.04 0 271.1855.1309 270.9902.9766-.1299.5215-36.7227 37.5703-81.3877 82.2344-53.6514 53.5869-81.2578 81.6494-81.2578 82.4961 0 .7812 2.6689 3.9717 6.7705 8.0742 5.7949 5.7295 6.9023 6.6406 7.9434 6.0547.7168-.3906 43.6895-43.2334 95.6484-95.127 51.8926-51.957 94.8008-94.4756 95.1914-94.4756.4561 0 .8467-.4561.8467-.9766s-.3906-.9766-.7812-.9766c-.4561 0-43.624-42.7773-95.9082-95.0615-52.2842-52.2837-95.3867-95.0615-95.7129-95.0615-.3908-.0002-3.6466 2.9949-7.3576 6.7059z"/>
</svg>
