<?xml version="1.0" encoding="utf-8"?>
<!-- Generator: Adobe Illustrator 16.0.3, SVG Export Plug-In . SVG Version: 6.00 Build 0)  -->
<!DOCTYPE svg PUBLIC "-//W3C//DTD SVG 1.1//EN" "http://www.w3.org/Graphics/SVG/1.1/DTD/svg11.dtd">
<svg version="1.1" id="Layer_1" xmlns="http://www.w3.org/2000/svg" xmlns:xlink="http://www.w3.org/1999/xlink" x="0px" y="0px"
	 width="239.76px" height="240.958px" viewBox="0 0 239.76 240.958" enable-background="new 0 0 239.76 240.958"
	 xml:space="preserve">
<g>
	<g>
		<defs>
			<rect id="SVGID_1_" y="0.238" width="239.76" height="240.72"/>
		</defs>
		<clipPath id="SVGID_2_">
			<use xlink:href="#SVGID_1_"  overflow="visible"/>
		</clipPath>
		<path clip-path="url(#SVGID_2_)" fill="#62C3AA" d="M119.996,0C53.727,0,0,53.726,0,119.996C0,186.266,53.727,240,119.996,240
			c66.27,0,120-53.73,120-120.004C239.996,53.722,186.27,0,119.996,0L119.996,0z M128.281,134.668
			c-0.004,0.316-0.051,0.632-0.094,0.949c-0.031,0.234-0.047,0.477-0.102,0.711c-0.055,0.242-0.145,0.48-0.223,0.723
			c-0.094,0.293-0.184,0.586-0.305,0.863c-0.023,0.047-0.031,0.098-0.051,0.145c-0.18,0.387-0.391,0.75-0.621,1.09
			c-0.016,0.022-0.031,0.043-0.047,0.062c-0.262,0.387-0.562,0.734-0.875,1.062c-0.086,0.09-0.176,0.168-0.266,0.254
			c-0.277,0.262-0.566,0.504-0.875,0.723c-0.098,0.07-0.188,0.141-0.289,0.207c-0.395,0.262-0.809,0.488-1.242,0.675
			c-0.094,0.043-0.191,0.067-0.285,0.106c-0.367,0.141-0.734,0.258-1.117,0.344c-0.137,0.035-0.273,0.062-0.41,0.089
			c-0.493,0.091-0.989,0.149-1.488,0.149c-0.101,0-0.207-0.031-0.308-0.035c-0.481-0.016-0.957-0.055-1.418-0.153
			c-0.141-0.03-0.282-0.093-0.426-0.132c-0.426-0.118-0.844-0.246-1.242-0.422c-0.047-0.023-0.094-0.028-0.141-0.051l-46.012-21.703
			c-4.144-1.953-5.922-6.899-3.968-11.047c1.957-4.141,6.902-5.918,11.046-3.965l34.176,16.113V49.8c0-4.586,3.715-8.3,8.297-8.3
			s8.301,3.714,8.301,8.3v84.719C128.297,134.57,128.281,134.621,128.281,134.668L128.281,134.668z M128.281,134.668"/>
	</g>
</g>
</svg>
