<?xml version="1.0" encoding="utf-8"?>
<!-- Generator: Adobe Illustrator 16.0.3, SVG Export Plug-In . SVG Version: 6.00 Build 0)  -->
<!DOCTYPE svg PUBLIC "-//W3C//DTD SVG 1.1//EN" "http://www.w3.org/Graphics/SVG/1.1/DTD/svg11.dtd">
<svg version="1.1"
	 id="svg2" xmlns:dc="http://purl.org/dc/elements/1.1/" xmlns:rdf="http://www.w3.org/1999/02/22-rdf-syntax-ns#" xmlns:svg="http://www.w3.org/2000/svg" xmlns:cc="http://creativecommons.org/ns#"
	 xmlns="http://www.w3.org/2000/svg" xmlns:xlink="http://www.w3.org/1999/xlink" x="0px" y="0px" width="496.006px"
	 height="496.006px" viewBox="0 0 496.006 496.006" enable-background="new 0 0 496.006 496.006" xml:space="preserve">
<g id="g10" transform="matrix(1.3333333,0,0,-1.3333333,0,496)">
	<g id="g12" transform="scale(0.1)">
		<path id="path14" d="M3246.448,2992.442l-704.019,703.979c-11.206,11.25-26.492,17.582-42.429,17.582H644.035
			c-103.674,0-188.013-84.342-188.013-188.013V197.981c0-103.63,84.338-187.962,188.013-187.962H3076.02
			c103.667,0,188.005,84.331,188.005,187.962V2950.02C3264.026,2965.91,3257.698,2981.192,3246.448,2992.442z M2560,3509.158
			l499.182-499.138h-431.169c-37.5,0-68.013,30.502-68.013,67.961V3509.158L2560,3509.158z M3076.02,130.02H644.035
			c-37.5,0-68.013,30.498-68.013,67.962v3328.008c0,37.5,30.513,68.013,68.013,68.013H2440v-516.021
			c0-103.63,84.339-187.961,188.013-187.961h516.013V197.981C3144.026,160.518,3113.52,130.02,3076.02,130.02z"/>
		<path id="path16" d="M900.002,3210.022h448.008c33.135,0,60,26.829,60,60c0,33.12-26.865,60-60,60H900.002
			c-33.12,0-60-26.88-60-60C840.002,3236.851,866.882,3210.022,900.002,3210.022z"/>
		<path id="path18" d="M900.002,2890.02h704.026c33.12,0,60,26.829,60,60c0,33.12-26.88,60-60,60H900.002c-33.12,0-60-26.88-60-60
			C840.002,2916.849,866.882,2890.02,900.002,2890.02z"/>
		<path id="path20" d="M1416.023,2437.98c0-33.12,26.88-60,60-60h768.01c33.12,0,60,26.88,60,60c0,33.171-26.88,60-60,60h-768.01
			C1442.902,2497.98,1416.023,2471.151,1416.023,2437.98z"/>
		<path id="path22" d="M2820.002,2177.981h-1920c-33.12,0-60-26.833-60-60c0-33.12,26.88-60,60-60h1920c33.164,0,60,26.88,60,60
			C2880.002,2151.149,2853.166,2177.981,2820.002,2177.981z"/>
		<path id="path24" d="M2052.043,1025.991h-448.015c-33.127,0-60-26.865-60-60c0-33.12,26.873-60,60-60h448.015
			c33.12,0,60,26.88,60,60C2112.043,999.126,2085.163,1025.991,2052.043,1025.991z"/>
		<path id="path26" d="M2052.043,705.989h-448.015c-33.127,0-60-26.865-60-60c0-33.12,26.873-60,60-60h448.015
			c33.12,0,60,26.88,60,60C2112.043,679.124,2085.163,705.989,2052.043,705.989z"/>
		<path id="path28" d="M2820.002,1857.979h-1920c-33.12,0-60-26.829-60-60c0-33.12,26.88-60,60-60h1920c33.164,0,60,26.88,60,60
			C2880.002,1831.15,2853.166,1857.979,2820.002,1857.979z"/>
		<path id="path30" d="M2820.002,1537.984h-1920c-33.12,0-60-26.836-60-60c0-33.12,26.88-60,60-60h1920c33.164,0,60,26.88,60,60
			C2880.002,1511.148,2853.166,1537.984,2820.002,1537.984z"/>
		<path id="path32" d="M2564.028,1090.02c-174.258,0-316.018-141.753-316.018-316.018s141.76-316.018,316.018-316.018
			c174.221,0,315.974,141.753,315.974,316.018S2738.249,1090.02,2564.028,1090.02z M2564.028,577.984
			c-108.091,0-196.018,87.927-196.018,196.018c0,108.083,87.927,196.018,196.018,196.018c108.04,0,195.974-87.935,195.974-196.018
			C2760.002,665.911,2672.068,577.984,2564.028,577.984z"/>
		<path id="path34" d="M2564.028,882.012c-59.568,0-108.01-48.442-108.01-108.01s48.442-108.01,108.01-108.01
			c59.531,0,108.01,48.442,108.01,108.01S2623.559,882.012,2564.028,882.012z"/>
	</g>
</g>
</svg>
