<?xml version="1.0" encoding="utf-8"?>
<!-- Generator: Adobe Illustrator 16.0.3, SVG Export Plug-In . SVG Version: 6.00 Build 0)  -->
<!DOCTYPE svg PUBLIC "-//W3C//DTD SVG 1.1//EN" "http://www.w3.org/Graphics/SVG/1.1/DTD/svg11.dtd">
<svg version="1.1" id="Layer_1" xmlns="http://www.w3.org/2000/svg" xmlns:xlink="http://www.w3.org/1999/xlink" x="0px" y="0px"
	 width="299.99px" height="299.99px" viewBox="0.005 -0.495 299.99 299.99" enable-background="new 0.005 -0.495 299.99 299.99"
	 xml:space="preserve">
<g transform="translate(0.000000,299.000000) scale(0.050000,-0.050000)">
	<path d="M865.996,5952.001C665,5887.001,185,5465.996,82.998,5265c-228.994-447.998,37.998-1380.996,666.006-2325
		c1115-1676.992,3141.992-3059.003,4279.003-2918.007c227.988,29.004,306.992,78.008,583.984,362.012
		c545,560,505,909.004-161.992,1400.996c-531.992,391.992-814.003,393.008-1219.999,4.004
		c-239.004-229.004-286.992-245.996-503.008-170c-510,180-1744.99,1367.998-2048.994,1971.992
		c-148.994,297.002-137.998,366.006,97.998,617.002c400,425,399.004,677.998-5,1229.004
		C1457.998,5862.998,1142.998,6042.998,865.996,5952.001z"/>
</g>
</svg>
