<?xml version="1.0" encoding="utf-8"?>
<!-- Generator: Adobe Illustrator 16.0.3, SVG Export Plug-In . SVG Version: 6.00 Build 0)  -->
<!DOCTYPE svg PUBLIC "-//W3C//DTD SVG 1.1//EN" "http://www.w3.org/Graphics/SVG/1.1/DTD/svg11.dtd">
<svg version="1.1"
	 id="svg2" xmlns:dc="http://purl.org/dc/elements/1.1/" xmlns:rdf="http://www.w3.org/1999/02/22-rdf-syntax-ns#" xmlns:svg="http://www.w3.org/2000/svg" xmlns:cc="http://creativecommons.org/ns#"
	 xmlns="http://www.w3.org/2000/svg" xmlns:xlink="http://www.w3.org/1999/xlink" x="0px" y="0px" width="524.012px"
	 height="524.012px" viewBox="0 0 524.012 524.012" enable-background="new 0 0 524.012 524.012" xml:space="preserve">
<g id="g10" transform="matrix(1.3333333,0,0,-1.3333333,0,524)">
	<g id="g12" transform="scale(0.1)">
		<path id="path14" d="M3921.037,3255.608h-822.378c51.174,68.793,81.599,155.2,81.599,249.573
			c0,258.398-216.006,416.02-416.008,416.02c-108.01,0-215.977-49.611-291.219-124.801l-507.956-508.008l-508.015,508.008
			c-75.198,83.2-183.208,124.801-291.211,124.801c-199.995,0-416.016-158.401-416.016-416.02c0-94.373,30.432-180.78,81.599-249.573
			H9.055V2265.18H341.86V9.99h3245.589V2265.18h332.812v990.428H3921.037z M2589.831,3679.6c58.44,58.4,132.81,75.19,174.419,75.19
			c124.797,0,249.602-91.208,249.602-249.609c0-141.599-108.003-249.573-249.602-249.573h-598.396L2589.831,3679.6z
			 M917.067,3505.181c0,158.401,124.797,249.609,249.602,249.609c41.602,0,107.974-16.791,174.375-75.19l424.805-423.992h-599.18
			C1025.07,3255.608,917.067,3363.582,917.067,3505.181z M176.245,2431.59v657.62h1706.397v-657.62H176.245L176.245,2431.59z
			 M509.05,2265.18h1373.591V176.396H509.05V2265.18z M3422.639,175.605H2049.055V2265.18h1373.584V175.605L3422.639,175.605z
			 M3755.459,2431.59H2049.055v657.62h1706.404V2431.59z"/>
	</g>
</g>
</svg>
