<?xml version="1.0" encoding="utf-8"?>
<!-- Generator: Adobe Illustrator 16.0.3, SVG Export Plug-In . SVG Version: 6.00 Build 0)  -->
<!DOCTYPE svg PUBLIC "-//W3C//DTD SVG 1.1//EN" "http://www.w3.org/Graphics/SVG/1.1/DTD/svg11.dtd">
<svg version="1.1" id="Layer_1" xmlns="http://www.w3.org/2000/svg" xmlns:xlink="http://www.w3.org/1999/xlink" x="0px" y="0px"
	 width="590.996px" height="590.996px" viewBox="0 0 590.996 590.996" enable-background="new 0 0 590.996 590.996"
	 xml:space="preserve">
<g transform="translate(0.000000,591.000000) scale(0.100000,-0.100000)">
	<path d="M3887.36,4789.921c-38.418-38.418-66.406-71.621-66.406-79.434c0-7.817,291.035-303.418,812.578-824.956
		c446.65-446.655,812.578-817.139,813.877-822.349c1.953-8.462-304.717-9.766-2709.902-9.766H24.998v-107.432v-107.432h2712.51
		c2410.4,0,2711.855-1.309,2709.902-9.766c-1.299-5.215-367.227-375.703-813.877-822.344
		c-536.514-535.869-812.578-816.494-812.578-824.961c0-7.812,26.689-39.717,67.705-80.742
		c57.949-57.295,69.023-66.406,79.434-60.547c7.168,3.906,436.895,432.334,956.484,951.27
		c518.926,519.57,948.008,944.756,951.914,944.756c4.561,0,8.467,4.561,8.467,9.766s-3.906,9.766-7.812,9.766
		c-4.561,0-436.24,427.773-959.082,950.615c-522.842,522.837-953.867,950.615-957.129,950.615
		C3957.028,4856.982,3924.47,4827.031,3887.36,4789.921z"/>
</g>
</svg>
