<?xml version="1.0" encoding="utf-8"?>
<!-- Generator: Adobe Illustrator 16.0.3, SVG Export Plug-In . SVG Version: 6.00 Build 0)  -->
<!DOCTYPE svg PUBLIC "-//W3C//DTD SVG 1.1//EN" "http://www.w3.org/Graphics/SVG/1.1/DTD/svg11.dtd">
<svg version="1.1" id="Layer_1" xmlns="http://www.w3.org/2000/svg" xmlns:xlink="http://www.w3.org/1999/xlink" x="0px" y="0px"
	 width="197.008px" height="197.008px" viewBox="0 0 197.008 197.008" enable-background="new 0 0 197.008 197.008"
	 xml:space="preserve">
<g transform="translate(0.000000,197.000000) scale(0.100000,-0.100000)">
	<path d="M325.42,1303.379L8.306,986.264l319.062-319.067l318.413-318.418l23.447,22.148c12.373,12.373,22.783,25.391,22.783,28.652
		c0,3.896-121.758,128.916-270.225,277.383L151.562,947.197l905.107,1.943l905.107,1.309v35.815v35.811l-905.107,1.309
		l-904.463,1.953l269.58,270.225c148.467,148.462,269.58,273.491,270.225,277.397c0,6.514-39.717,48.184-46.23,48.184
		C644.492,1621.142,500.586,1478.54,325.42,1303.379z"/>
</g>
</svg>
