<?xml version="1.0" encoding="utf-8"?>
<!-- Generator: Adobe Illustrator 16.0.3, SVG Export Plug-In . SVG Version: 6.00 Build 0)  -->
<!DOCTYPE svg PUBLIC "-//W3C//DTD SVG 1.1//EN" "http://www.w3.org/Graphics/SVG/1.1/DTD/svg11.dtd">
<svg version="1.1"
	 id="svg2" xmlns:dc="http://purl.org/dc/elements/1.1/" xmlns:rdf="http://www.w3.org/1999/02/22-rdf-syntax-ns#" xmlns:svg="http://www.w3.org/2000/svg" xmlns:cc="http://creativecommons.org/ns#"
	 xmlns="http://www.w3.org/2000/svg" xmlns:xlink="http://www.w3.org/1999/xlink" x="0px" y="0px" width="64.006px"
	 height="64.006px" viewBox="0 0 64.006 64.006" enable-background="new 0 0 64.006 64.006" xml:space="preserve">
<g id="g10" transform="matrix(1.3333333,0,0,-1.3333333,0,64)">
	<g id="g12" transform="scale(0.1)">
		<path id="path14" d="M456.013,448.011h-56.016v23.976c0,4.424-3.545,8.013-7.954,8.013h-56.03c-4.409,0-8.005-3.589-8.005-8.013
			v-23.976H152.04v23.976c0,4.424-3.6,8.013-8.009,8.013H88.008c-4.413,0-8.009-3.589-8.009-8.013v-23.976H24.031
			c-4.424,0-8.013-3.6-8.013-8.013V8.012C16.018,3.589,19.607,0,24.031,0h431.982c4.417,0,8.013,3.589,8.013,8.013v431.986
			C464.026,444.411,460.43,448.011,456.013,448.011z M344.026,463.982h40.005v-47.963h-40.005V463.982z M96.017,463.982h40.001
			v-47.963H96.017V463.982z M32.036,431.99h47.963V408.01c0-4.42,3.596-8.009,8.009-8.009h56.023c4.409,0,8.009,3.589,8.009,8.009
			v23.979h175.968V408.01c0-4.42,3.596-8.009,8.005-8.009h56.03c4.409,0,7.954,3.589,7.954,8.009v23.979h48.01V360H32.036V431.99z
			 M32.036,16.018v327.964h415.972V16.018H32.036z"/>
		<path id="path16" d="M304.028,296.019H88.008V63.984h304.036v232.035H304.028z M248.005,280.001h56.023v-56.019h-56.023V280.001z
			 M304.028,151.992h-56.023v56.016h56.023V151.992z M176.019,208.008h56.019v-56.016h-56.019V208.008z M176.019,280.001h56.019
			v-56.019h-56.019V280.001z M104.03,280.001h55.968v-56.019H104.03V280.001z M104.03,208.008h55.968v-56.016H104.03V208.008z
			 M159.998,79.995H104.03v56.023h55.968V79.995z M232.039,79.995h-56.019v56.023h56.019V79.995z M304.028,79.995h-56.023v56.023
			h56.023V79.995z M376.018,79.995h-56.016v56.023h56.016V79.995z M376.018,151.992h-56.016v56.016h56.016V151.992z
			 M376.018,280.001v-56.019h-56.016v56.019H376.018z"/>
	</g>
</g>
</svg>
