<?xml version="1.0" standalone="no"?>
<!DOCTYPE svg PUBLIC "-//W3C//DTD SVG 20010904//EN"
 "http://www.w3.org/TR/2001/REC-SVG-20010904/DTD/svg10.dtd">
<svg version="1.0" xmlns="http://www.w3.org/2000/svg"
 width="900.000000pt" height="900.000000pt" viewBox="0 0 900.000000 900.000000"
 preserveAspectRatio="xMidYMid meet">
<metadata>
Created by potrace 1.10, written by Peter Selinger 2001-2011
</metadata>
<g transform="translate(0.000000,900.000000) scale(0.100000,-0.100000)"
fill="#000000" stroke="none">
<path d="M345 8811 c-95 -17 -219 -104 -279 -197 -15 -22 -35 -65 -46 -95 -20
-52 -20 -85 -20 -1458 0 -1068 3 -1414 12 -1445 38 -130 152 -247 293 -302 49
-18 88 -19 1455 -19 l1405 0 55 23 c103 44 200 130 246 217 57 110 55 42 55
1525 0 1475 2 1416 -52 1520 -37 70 -136 162 -215 201 l-69 34 -1400 1 c-770
1 -1418 -1 -1440 -5z m2800 -263 c32 -18 71 -57 98 -98 16 -22 17 -136 17
-1387 l0 -1362 -21 -41 c-12 -22 -33 -50 -48 -61 -65 -51 4 -49 -1435 -48
-1001 0 -1349 4 -1372 12 -40 16 -74 44 -104 87 l-25 35 0 1375 0 1376 34 43
c21 26 55 53 85 67 l51 24 1345 -3 c1248 -2 1347 -3 1375 -19z"/>
<path d="M5890 8810 c-89 -19 -196 -89 -260 -169 -18 -23 -46 -74 -61 -113
l-29 -70 0 -1397 c0 -1381 0 -1397 20 -1455 48 -134 136 -225 282 -288 l53
-23 1410 0 1410 0 79 38 c51 25 98 58 133 93 30 30 59 54 64 54 5 0 9 607 9
1580 0 1236 -3 1580 -12 1580 -7 0 -35 22 -63 49 -27 27 -81 67 -120 88 l-70
38 -1405 1 c-773 1 -1421 -1 -1440 -6z m2776 -255 c49 -20 84 -50 116 -98 l28
-42 0 -1353 c0 -1312 -1 -1354 -19 -1390 -26 -50 -72 -93 -118 -109 -31 -10
-299 -13 -1376 -13 l-1337 0 -45 21 c-50 23 -96 75 -113 128 -9 25 -12 382
-12 1356 0 1186 2 1326 16 1368 19 56 59 100 117 126 41 19 82 19 1375 20
1153 1 1337 -1 1368 -14z"/>
<path d="M8309 7838 c-37 -59 -42 -66 -83 -135 -16 -26 -53 -85 -83 -130 -29
-45 -53 -84 -53 -87 0 -3 -19 -33 -42 -68 -24 -35 -48 -73 -55 -84 -10 -16
-39 -62 -113 -179 -37 -58 -136 -218 -145 -233 -6 -9 -28 -44 -50 -77 -22 -33
-44 -68 -50 -77 -26 -44 -132 -213 -147 -237 -10 -14 -21 -33 -25 -41 -4 -8
-25 -42 -47 -75 -23 -33 -48 -73 -56 -88 -8 -16 -25 -40 -38 -54 l-24 -26
-526 526 c-290 290 -534 527 -542 527 -19 0 -170 -150 -170 -168 0 -15 1273
-1292 1288 -1292 8 0 84 112 158 233 16 27 36 59 44 72 8 12 35 55 60 94 25
40 52 83 60 95 8 13 35 56 60 96 25 40 52 83 60 96 8 12 35 55 60 95 25 39 52
82 60 94 8 13 41 65 73 117 32 51 87 138 122 193 36 55 69 109 75 120 6 11 39
65 74 120 36 55 90 141 121 190 31 50 78 124 105 165 27 41 57 90 66 109 l18
34 -35 28 c-19 16 -37 29 -41 29 -3 0 -30 16 -59 35 -30 19 -61 35 -70 35 -10
0 -32 -23 -50 -52z"/>
<path d="M440 3612 c-134 -13 -238 -62 -320 -149 -61 -65 -83 -101 -106 -173
-21 -67 -21 -2823 0 -2890 24 -76 47 -112 115 -181 69 -68 101 -88 190 -120
52 -18 103 -19 1440 -19 1288 0 1390 1 1436 17 155 54 271 175 314 329 15 57
17 2764 1 2826 -41 164 -161 291 -320 341 -24 8 -440 13 -1380 17 -740 3
-1356 4 -1370 2z m2703 -279 c48 -26 67 -44 93 -85 l24 -38 0 -1368 0 -1369
-29 -40 c-37 -52 -74 -77 -133 -91 -70 -18 -2611 -17 -2687 0 -67 16 -134 76
-150 134 -14 52 -15 2683 -1 2735 12 44 53 90 105 118 l40 21 1353 0 c1267 0
1356 -1 1385 -17z"/>
<path d="M5884 3595 c-77 -19 -152 -63 -216 -129 -62 -63 -78 -89 -109 -176
-18 -53 -19 -95 -19 -1446 0 -1342 1 -1393 19 -1445 27 -78 46 -110 92 -163
50 -57 129 -109 206 -136 56 -20 82 -20 1444 -20 1337 0 1388 1 1440 19 83 29
115 48 178 107 32 30 64 54 70 54 8 0 11 424 11 1580 0 1187 -3 1580 -12 1580
-6 0 -27 18 -46 41 -56 65 -134 110 -232 135 -77 19 -2748 18 -2826 -1z m2804
-264 c43 -22 83 -63 106 -108 14 -29 16 -159 16 -1380 l0 -1348 -21 -40 c-30
-57 -74 -92 -135 -110 -76 -22 -2619 -23 -2704 0 -65 17 -129 78 -148 142 -17
57 -17 2664 0 2714 16 49 64 106 107 129 35 19 74 19 1389 20 1312 0 1354 -1
1390 -19z"/>
</g>
</svg>
