<?xml version="1.0" standalone="no"?>
<!DOCTYPE svg PUBLIC "-//W3C//DTD SVG 20010904//EN"
 "http://www.w3.org/TR/2001/REC-SVG-20010904/DTD/svg10.dtd">
<svg version="1.0" xmlns="http://www.w3.org/2000/svg"
 width="300.000000pt" height="300.000000pt" viewBox="0 0 300.000000 300.000000"
 preserveAspectRatio="xMidYMid meet">
<metadata>
Created by potrace 1.10, written by Peter Selinger 2001-2011
</metadata>
<g transform="translate(0.000000,300.000000) scale(0.100000,-0.100000)"
fill="#000000" stroke="none">
<path d="M890 2890 c-273 -37 -528 -194 -673 -413 -58 -88 -114 -214 -139
-313 -17 -70 -21 -118 -21 -224 1 -155 26 -274 84 -395 l34 -70 -87 -264 c-48
-146 -87 -266 -85 -267 1 -1 128 31 282 72 154 41 284 73 288 71 4 -1 23 -48
42 -104 19 -57 44 -122 56 -145 76 -152 218 -320 356 -424 320 -241 744 -300
1128 -159 55 20 109 39 120 41 11 3 173 -36 360 -85 187 -49 342 -88 344 -86
1 2 -45 148 -104 325 l-107 322 40 87 c79 168 112 320 112 506 0 323 -114 598
-345 831 -187 190 -393 295 -660 339 -49 8 -107 15 -128 15 -33 0 -48 8 -100
56 -237 215 -531 320 -797 284z m310 -101 c95 -23 276 -114 358 -179 34 -28
62 -54 62 -59 0 -5 -27 -12 -61 -15 -229 -26 -515 -176 -684 -359 -226 -243
-335 -541 -321 -874 3 -73 3 -133 0 -133 -2 0 -97 -25 -211 -55 -114 -30 -209
-53 -211 -50 -2 2 27 96 64 208 l68 205 -42 89 c-62 130 -83 224 -84 368 -1
254 86 462 268 636 84 80 143 121 237 164 178 82 369 100 557 54z m675 -329
c129 -19 229 -50 350 -110 300 -148 498 -395 587 -730 28 -107 35 -317 15
-435 -20 -115 -58 -229 -109 -327 l-40 -77 90 -271 c50 -148 88 -270 84 -270
-3 0 -144 36 -312 79 -342 89 -524 131 -571 131 -43 0 -79 -34 -79 -74 1 -37
15 -58 55 -78 l30 -16 -50 -9 c-28 -4 -122 -8 -210 -7 -174 1 -234 12 -390 73
-163 63 -339 193 -452 335 -77 97 -173 287 -202 399 -85 329 -29 648 161 924
59 85 197 221 287 282 214 146 508 216 756 181z"/>
<path d="M1102 1480 c-89 -55 -104 -176 -30 -249 65 -63 151 -65 217 -5 82 73
71 198 -22 254 -43 27 -121 26 -165 0z m136 -80 c49 -46 15 -134 -52 -134 -54
0 -81 34 -77 97 3 52 87 76 129 37z"/>
<path d="M1622 1480 c-46 -28 -72 -76 -72 -133 0 -56 18 -95 60 -130 103 -87
271 5 257 142 -12 113 -148 180 -245 121z m138 -80 c62 -62 -1 -163 -82 -129
-33 14 -48 37 -48 75 0 63 85 99 130 54z"/>
<path d="M2150 1481 c-115 -61 -100 -239 24 -286 141 -54 268 98 193 229 -27
48 -78 76 -137 76 -25 0 -61 -8 -80 -19z m135 -86 c14 -13 25 -36 25 -50 0
-32 -50 -85 -80 -85 -30 0 -80 53 -80 85 0 36 41 75 80 75 19 0 40 -9 55 -25z"/>
</g>
</svg>
