<?xml version="1.0" standalone="no"?>
<!DOCTYPE svg PUBLIC "-//W3C//DTD SVG 20010904//EN"
 "http://www.w3.org/TR/2001/REC-SVG-20010904/DTD/svg10.dtd">
<svg version="1.0" xmlns="http://www.w3.org/2000/svg"
 width="300.000000pt" height="300.000000pt" viewBox="0 0 300.000000 300.000000"
 preserveAspectRatio="xMidYMid meet">
<metadata>
Created by potrace 1.10, written by Peter Selinger 2001-2011
</metadata>
<g transform="translate(0.000000,300.000000) scale(0.050000,-0.050000)"
fill="#000000" stroke="none">
<path d="M2600 5979 c-2356 -289 -3419 -3052 -1864 -4846 816 -941 2203 -1246
3374 -742 l80 35 -200 45 c-110 24 -270 60 -355 79 -110 24 -155 43 -155 64 0
21 13 27 45 19 25 -6 194 -44 375 -84 182 -41 721 -176 1198 -301 478 -126
872 -224 877 -219 5 5 -108 360 -251 790 l-261 782 97 204 c984 2065 -708
4450 -2960 4174z m845 -181 c1802 -332 2788 -2329 1964 -3973 l-105 -209 228
-683 c126 -375 226 -688 223 -695 -3 -7 -356 79 -785 192 -1291 339 -1502 379
-1581 301 -117 -117 -39 -269 160 -311 138 -29 137 -31 -47 -70 -2002 -421
-3770 1413 -3272 3394 360 1430 1758 2323 3215 2054z"/>
<path d="M1433 3371 c-274 -98 -337 -449 -115 -636 365 -307 834 244 476 559
-114 99 -229 124 -361 77z m272 -189 c57 -52 65 -71 65 -162 0 -263 -377 -308
-441 -53 -53 212 210 362 376 215z"/>
<path d="M2810 3391 c-11 -4 -44 -13 -73 -19 -263 -58 -336 -454 -119 -637
320 -270 777 147 541 493 -71 103 -264 194 -349 163z m205 -222 c65 -65 69
-77 60 -164 -28 -246 -358 -287 -435 -55 -76 230 202 392 375 219z"/>
<path d="M4110 3391 c-11 -4 -44 -13 -73 -19 -263 -58 -336 -454 -119 -637
312 -263 761 121 554 473 -66 114 -270 216 -362 183z m202 -219 c56 -56 68
-83 68 -152 0 -250 -362 -307 -440 -70 -75 228 202 392 372 222z"/>
</g>
</svg>
