<?xml version="1.0" encoding="utf-8"?>
<!-- Generator: Adobe Illustrator 16.0.3, SVG Export Plug-In . SVG Version: 6.00 Build 0)  -->
<!DOCTYPE svg PUBLIC "-//W3C//DTD SVG 1.1//EN" "http://www.w3.org/Graphics/SVG/1.1/DTD/svg11.dtd">
<svg version="1.1" id="Layer_1" xmlns="http://www.w3.org/2000/svg" xmlns:xlink="http://www.w3.org/1999/xlink" x="0px" y="0px"
	 width="20.012px" height="20.013px" viewBox="0 0 20.012 20.013" xml:space="preserve">
<g>
	<path d="M15.006,0.011l-2.595-0.004c-2.913,0-4.796,1.932-4.796,4.922v2.27H5.007
		C4.783,7.199,4.6,7.38,4.6,7.606v3.288c0,0.226,0.183,0.408,0.407,0.408h2.608v8.297c0,0.225,0.183,0.407,0.409,0.407h3.401
		c0.225,0,0.408-0.183,0.408-0.407v-8.297h3.049c0.225,0,0.407-0.183,0.407-0.408l0.002-3.288c0-0.108-0.043-0.211-0.12-0.289
		c-0.076-0.076-0.18-0.118-0.288-0.118h-3.05V5.275c0-0.925,0.221-1.394,1.425-1.394l1.747-0.001c0.225,0,0.406-0.183,0.406-0.408
		V0.42C15.412,0.194,15.23,0.012,15.006,0.011"/>
</g>
</svg>
