<?xml version="1.0" encoding="utf-8"?>
<!-- Generator: Adobe Illustrator 16.0.3, SVG Export Plug-In . SVG Version: 6.00 Build 0)  -->
<!DOCTYPE svg PUBLIC "-//W3C//DTD SVG 1.1//EN" "http://www.w3.org/Graphics/SVG/1.1/DTD/svg11.dtd">
<svg version="1.1" id="Layer_1" xmlns="http://www.w3.org/2000/svg" xmlns:xlink="http://www.w3.org/1999/xlink" x="0px" y="0px"
	 width="62.788px" height="62.788px" viewBox="0 0 62.788 62.788" enable-background="new 0 0 62.788 62.788" xml:space="preserve">
<g>
	<defs>
		<rect id="SVGID_1_" x="-0.006" y="6.244" width="62.8" height="50.3"/>
	</defs>
	<clipPath id="SVGID_2_">
		<use xlink:href="#SVGID_1_"  overflow="visible"/>
	</clipPath>
	<path clip-path="url(#SVGID_2_)" d="M2.144,56.244c-1.02,0-1.85-0.83-1.85-1.85V29.227c0-1.021,0.83-1.85,1.85-1.85h31.485v-6.922
		c0-7.67,6.24-13.911,13.911-13.911h1.042c7.671,0,13.912,6.241,13.912,13.911v3.647c0,0.237-0.094,0.461-0.263,0.63
		s-0.392,0.262-0.629,0.262c-0.04,0-0.08-0.003-0.121-0.008c-0.438-0.059-0.77-0.455-0.77-0.924v-3.607
		c0-6.687-5.442-12.128-12.13-12.128H47.54c-6.688,0-12.129,5.441-12.129,12.128v6.922h4.399c1.021,0,1.851,0.829,1.851,1.85v25.167
		c0,1.02-0.829,1.85-1.851,1.85H2.144z M2.077,52.31c0,1.186,0.964,2.149,2.15,2.149h33.499c1.187,0,2.151-0.964,2.151-2.149v-21
		c0-1.186-0.965-2.15-2.151-2.15H4.228c-1.186,0-2.15,0.964-2.15,2.15v2.316h31.4c0.362,0,0.695,0.228,0.829,0.565
		c0.154,0.388,0.025,0.815-0.355,1.176c-0.027,0.027-0.068,0.042-0.113,0.042H2.077V52.31z"/>
	<path clip-path="url(#SVGID_2_)" fill="#FFFFFF" d="M48.582,6.693c7.589,0,13.763,6.174,13.763,13.762v3.646
		c0,0.409-0.333,0.742-0.742,0.742c-0.033,0-0.067-0.002-0.101-0.007c-0.365-0.048-0.642-0.382-0.642-0.775v-3.606
		c0-6.77-5.508-12.279-12.278-12.279H47.54c-6.771,0-12.278,5.509-12.278,12.279v6.771v0.3h0.3h4.249c0.938,0,1.7,0.763,1.7,1.7
		v25.167c0,0.937-0.762,1.699-1.7,1.699H2.143c-0.937,0-1.7-0.763-1.7-1.699V29.227c0-0.937,0.763-1.7,1.7-1.7h31.334h0.3v-0.3
		v-6.771c0-7.588,6.174-13.762,13.763-13.762H48.582 M1.927,33.777h0.3h22.688h2.312h6.25c0.3,0,0.577,0.188,0.689,0.47
		c0.131,0.328,0.015,0.697-0.329,1.014h-6.61h-2.312H2.227h-0.3v0.301v16.748c0,1.27,1.032,2.301,2.3,2.301h33.5
		c1.269,0,2.3-1.031,2.3-2.301V31.311c0-1.268-1.031-2.3-2.3-2.3h-33.5c-1.268,0-2.3,1.032-2.3,2.3v2.166V33.777 M48.582,6.394
		H47.54c-7.767,0-14.062,6.296-14.062,14.062v6.771H2.143c-1.104,0-2,0.896-2,2v25.167c0,1.104,0.896,2,2,2H39.81
		c1.105,0,2-0.896,2-2V29.227c0-1.104-0.895-2-2-2h-4.249v-6.771c0-6.616,5.363-11.979,11.979-11.979h1.042
		c6.615,0,11.979,5.363,11.979,11.979v3.606c0,0.529,0.378,1.003,0.902,1.072c0.047,0.007,0.094,0.01,0.14,0.01
		c0.573,0,1.042-0.469,1.042-1.042v-3.646C62.644,12.689,56.348,6.394,48.582,6.394 M2.227,33.476v-2.166c0-1.105,0.895-2,2-2h33.5
		c1.104,0,2,0.895,2,2v20.999c0,1.105-0.896,2-2,2h-33.5c-1.105,0-2-0.895-2-2V35.561h22.688h2.312h6.61
		c0.08,0,0.159-0.028,0.217-0.083c0.938-0.891,0.304-2.002-0.577-2.002h-6.25h-2.312H2.227z"/>
</g>
</svg>
