<?xml version="1.0" encoding="utf-8"?>
<!-- Generator: Adobe Illustrator 16.0.3, SVG Export Plug-In . SVG Version: 6.00 Build 0)  -->
<!DOCTYPE svg PUBLIC "-//W3C//DTD SVG 1.1//EN" "http://www.w3.org/Graphics/SVG/1.1/DTD/svg11.dtd">
<svg version="1.1"
	 id="svg2" xmlns:dc="http://purl.org/dc/elements/1.1/" xmlns:rdf="http://www.w3.org/1999/02/22-rdf-syntax-ns#" xmlns:svg="http://www.w3.org/2000/svg" xmlns:cc="http://creativecommons.org/ns#"
	 xmlns="http://www.w3.org/2000/svg" xmlns:xlink="http://www.w3.org/1999/xlink" x="0px" y="0px" width="64.006px"
	 height="64.006px" viewBox="0 0 64.006 64.006" enable-background="new 0 0 64.006 64.006" xml:space="preserve">
<g id="g10" transform="matrix(1.3333333,0,0,-1.3333333,0,54.666667)">
	<g id="g12" transform="scale(0.1)">
		<path id="path14" d="M441.628,285.971h-68.203l-31.992,79.999H138.611l-31.989-79.999h-10.58v40.005h-48.01v-40.005h-9.613
			c-21.167,0-38.397-17.23-38.397-38.397V12.654c0-21.328,17.34-38.672,38.672-38.672H441.35c21.328,0,38.672,17.344,38.672,38.672
			v234.921C480.022,268.741,462.795,285.971,441.628,285.971z M64.003,309.947h16.018v-23.976H64.003V309.947z M463.997,12.654
			c0-12.539-10.151-22.698-22.646-22.698H38.694c-12.499,0-22.654,10.195-22.654,22.698v234.921
			c0,12.341,10.034,22.375,22.379,22.375h79.025l31.989,80.002h181.176L362.6,269.95h79.028c12.341,0,22.368-10.034,22.368-22.375
			V12.654z"/>
		<path id="path16" d="M240.022,293.98c-79.409,0-143.979-64.614-143.979-144.034c0-79.365,64.57-143.979,143.979-143.979
			s143.979,64.614,143.979,143.979C384.001,229.366,319.431,293.98,240.022,293.98z M240.022,21.992
			c-70.591,0-128.013,57.422-128.013,127.954c0,70.594,57.422,128.009,128.013,128.009s128.013-57.415,128.013-128.009
			C368.035,79.414,310.613,21.992,240.022,21.992z"/>
		<path id="path18" d="M240.022,245.97c-52.928,0-96.021-43.052-96.021-96.024c0-52.925,43.092-95.962,96.021-95.962
			c52.925,0,96.021,43.037,96.021,95.962C336.042,202.918,292.947,245.97,240.022,245.97z M240.022,69.951
			c-44.103,0-79.999,35.903-79.999,79.995c0,44.154,35.896,80.006,79.999,80.006c44.106,0,79.995-35.852,79.995-80.006
			C320.017,105.854,284.128,69.951,240.022,69.951z"/>
		<path id="path20" d="M416.038,253.987c-17.651,0-32.036-14.385-32.036-31.992c0-17.659,14.385-32.043,32.036-32.043
			c17.615,0,31.992,14.385,31.992,32.043C448.03,239.602,433.652,253.987,416.038,253.987z M416.038,205.973
			c-8.826,0-16.011,7.185-16.011,16.018c0,8.782,7.185,15.967,16.011,15.967c8.789,0,15.974-7.185,15.974-15.967
			C432.012,213.161,424.827,205.973,416.038,205.973z"/>
	</g>
</g>
</svg>
