<?xml version="1.0" encoding="utf-8"?>
<!-- Generator: Adobe Illustrator 16.0.3, SVG Export Plug-In . SVG Version: 6.00 Build 0)  -->
<!DOCTYPE svg PUBLIC "-//W3C//DTD SVG 1.1//EN" "http://www.w3.org/Graphics/SVG/1.1/DTD/svg11.dtd">
<svg version="1.1" id="Layer_1" xmlns="http://www.w3.org/2000/svg" xmlns:xlink="http://www.w3.org/1999/xlink" x="0px" y="0px"
	 width="427.012px" height="427.011px" viewBox="0 0 427.012 427.011" enable-background="new 0 0 427.012 427.011"
	 xml:space="preserve">
<g transform="translate(0.000000,427.000000) scale(0.050000,-0.050000)">
	<path d="M3929.584,8505.604c-1122.988-143.994-2020-840-2411.992-1870c-352.012-925-290.996-2025,156.992-2853.994
		c80-146.992,2573.007-3771.992,2595-3771.992c5.996,0,330,463.008,720,1028.984
		c390.996,566.016,950.996,1378.008,1245.996,1804.023c794.004,1146.992,919.004,1418.984,995,2160.976
		C7442.592,7076.61,5861.577,8754.608,3929.584,8505.604z M4704.584,8177.606c1816.992-295,2803.984-2422.002,1930.996-4159.98
		c-85-169.023-2335-3450-2365.996-3450S1988.589,3848.603,1902.593,4018.603c-565.996,1126.006-335,2636.006,530.996,3460
		C3033.588,8049.608,3882.592,8310.604,4704.584,8177.606z"/>
	<path d="M3899.584,7080.604c-497.988-162.002-885-592.002-961.992-1067.998l-13.008-85h130h130l10.996,80.996
		c49.004,367.002,567.012,859.004,904.004,859.004c48.008,0,50,5,50,130C4149.584,7152.606,4135.581,7156.61,3899.584,7080.604z"/>
	<path d="M4449.584,7002.606v-130l81.992-10.996c361.016-48.008,812.012-493.008,871.016-859.004l11.992-75h129.004h130l-14.004,85
		c-86.992,527.998-590,1027.998-1115,1105l-95,15V7002.606z"/>
	<path d="M4203.588,6284.608c-419.004-62.002-591.992-572.002-303.008-894.004c332.012-368.994,935-132.998,935.996,367.002
		C4836.577,6095.604,4548.588,6335.604,4203.588,6284.608z M4502.592,6075.604c90-50.996,186.992-210.996,186.992-307.002
		c-0.996-430.996-582.988-552.998-749.004-155.996C3797.592,5954.608,4174.584,6264.608,4502.592,6075.604z"/>
	<path d="M2932.592,5517.606c86.992-552.998,551.992-1024.004,1114.004-1125.996l102.988-19.004v127.002
		c0,122.998-1.992,127.998-55,138.994c-450,96.006-790.996,421.006-899.004,859.004l-31.992,130h-124.004h-124.004
		L2932.592,5517.606z"/>
	<path d="M5421.577,5602.606c-3.984-14.004-16.992-70-30-125c-98.984-412.002-445.996-740.996-886.992-839.004
		c-53.008-10.996-55-15.996-55-138.994v-127.002l95,17.998c573.008,106.006,1125,685,1125,1179.004
		C5669.584,5633.603,5437.592,5664.608,5421.577,5602.606z"/>
</g>
</svg>
