<?xml version="1.0" encoding="utf-8"?>
<!-- Generator: Adobe Illustrator 16.0.3, SVG Export Plug-In . SVG Version: 6.00 Build 0)  -->
<!DOCTYPE svg PUBLIC "-//W3C//DTD SVG 1.1//EN" "http://www.w3.org/Graphics/SVG/1.1/DTD/svg11.dtd">
<svg version="1.1" id="Layer_1" xmlns="http://www.w3.org/2000/svg" xmlns:xlink="http://www.w3.org/1999/xlink" x="0px" y="0px"
	 width="60.01px" height="60.01px" viewBox="0 0 60.01 60.01" enable-background="new 0 0 60.01 60.01" xml:space="preserve">
<g>
	<defs>
		<rect id="SVGID_1_" x="6.05" y="0.005" width="47.91" height="60"/>
	</defs>
	<clipPath id="SVGID_2_">
		<use xlink:href="#SVGID_1_"  overflow="visible"/>
	</clipPath>
	<path clip-path="url(#SVGID_2_)" d="M44.205,38.863l-7.493-1.665V34.83c2.527-1.824,4.285-4.644,4.691-7.884
		c1.915-2.011,2.975-4.631,2.975-7.418v-6.813c1.737-1.251,2.874-3.285,2.874-5.583c0-2.623-1.457-4.981-3.802-6.154l-1.947-0.973
		v2.829c0,0.879-0.716,1.595-1.597,1.595c-0.501,0-0.978-0.238-1.279-0.641l-0.095-0.125C37.093,1.743,34.8,0.597,32.4,0.597h-6.229
		c-5.811,0-10.54,4.728-10.54,10.54v8.391c0,2.787,1.059,5.406,2.974,7.418c0.406,3.24,2.163,6.059,4.691,7.883v2.368l-7.492,1.665
		C10.061,40.14,6.05,45.14,6.05,51.023v8.981h47.91v-8.981C53.96,45.14,49.949,40.14,44.205,38.863 M42.462,19.528
		c0,1.416-0.336,2.776-0.959,4.001V13.91c0.327-0.055,0.649-0.127,0.959-0.225V19.528z M18.506,15.928v7.602
		c-0.622-1.226-0.958-2.587-0.958-4.002v-8.391c0-4.754,3.869-8.624,8.624-8.624H32.4c1.801,0,3.52,0.86,4.602,2.301l0.093,0.125
		c0.66,0.881,1.711,1.407,2.812,1.407c1.814,0,3.312-1.383,3.494-3.15c1.213,0.928,1.936,2.366,1.936,3.936
		c0,2.736-2.227,4.963-4.965,4.963H22.339C20.225,12.095,18.506,13.814,18.506,15.928 M20.422,25.51v-9.582
		c0-1.056,0.86-1.916,1.917-1.916h17.248V25.51c0,5.283-4.299,9.582-9.583,9.582C24.721,35.092,20.422,30.793,20.422,25.51
		 M35.62,38.919c-0.427,1.651-1.916,2.881-3.699,2.881h-3.833c-1.782,0-3.272-1.229-3.698-2.882l0.824-0.183v-2.787
		c1.46,0.674,3.079,1.061,4.79,1.061c1.712,0,3.331-0.387,4.791-1.06v2.787L35.62,38.919z M22.339,50.424v7.665h-4.791v-3.833
		h-1.916v3.833H7.966v-7.065c0-4.979,3.394-9.209,8.253-10.289l2.739-0.609l4.032,8.87C22.594,49.347,22.339,49.854,22.339,50.424
		 M20.87,39.701l1.641-0.366c0.616,2.511,2.88,4.381,5.577,4.381h3.833c2.697,0,4.961-1.87,5.578-4.381l1.641,0.366l-4.004,8.806
		H27.13V46.59h-1.917v1.917h-0.341L20.87,39.701z M31.921,54.256c0,1.058-0.86,1.916-1.917,1.916c-1.057,0-1.916-0.858-1.916-1.916
		c0-1.057,0.859-1.916,1.916-1.916C31.061,52.34,31.921,53.199,31.921,54.256 M30.004,58.089h-5.748v-7.665h5.742
		c-2.111,0.003-3.826,1.721-3.826,3.832C26.172,56.37,27.891,58.089,30.004,58.089c2.114,0,3.834-1.719,3.834-3.833
		c0-2.111-1.716-3.829-3.827-3.832h5.743l0.001,7.665H30.004z M52.043,58.089h-7.665v-3.833h-1.916v3.833h-4.791v-7.665
		c0-0.57-0.256-1.077-0.651-1.429l4.032-8.87l2.739,0.609c4.858,1.08,8.252,5.311,8.252,10.289V58.089z"/>
</g>
</svg>
