<?xml version="1.0" encoding="utf-8"?>
<!-- Generator: Adobe Illustrator 16.0.3, SVG Export Plug-In . SVG Version: 6.00 Build 0)  -->
<!DOCTYPE svg PUBLIC "-//W3C//DTD SVG 1.1//EN" "http://www.w3.org/Graphics/SVG/1.1/DTD/svg11.dtd">
<svg version="1.1" id="Layer_1" xmlns="http://www.w3.org/2000/svg" xmlns:xlink="http://www.w3.org/1999/xlink" x="0px" y="0px"
	 width="66.812px" height="66.812px" viewBox="0 0 66.812 66.812" enable-background="new 0 0 66.812 66.812" xml:space="preserve">
<g>
	<g>
		<g>
			<g>
				<defs>
					<rect id="SVGID_1_" x="-0.002" y="3.406" width="66.816" height="60"/>
				</defs>
				<clipPath id="SVGID_2_">
					<use xlink:href="#SVGID_1_"  overflow="visible"/>
				</clipPath>
				<path clip-path="url(#SVGID_2_)" d="M7.76,34.36c-0.055,0-0.11-0.011-0.176-0.02c-0.238-0.047-0.462-0.193-0.603-0.397
					L0.163,23.904c-0.296-0.437-0.186-1.028,0.251-1.324c0.436-0.286,1.019-0.176,1.312,0.251l6.294,9.263l9.252-6.283
					c0.437-0.297,1.02-0.187,1.313,0.251c0.296,0.433,0.187,1.018-0.251,1.312L8.298,34.192C8.142,34.302,7.955,34.36,7.76,34.36"/>
			</g>
		</g>
	</g>
	<g>
		<g>
			<g>
				<defs>
					<rect id="SVGID_3_" x="-0.002" y="3.406" width="66.816" height="60"/>
				</defs>
				<clipPath id="SVGID_4_">
					<use xlink:href="#SVGID_3_"  overflow="visible"/>
				</clipPath>
				<path clip-path="url(#SVGID_4_)" d="M36.816,63.406c-9.984,0-19.284-4.94-24.873-13.225c-0.296-0.438-0.185-1.026,0.249-1.312
					c0.437-0.297,1.028-0.186,1.313,0.248c5.247,7.767,13.955,12.4,23.311,12.4c15.499,0,28.111-12.613,28.111-28.112
					S52.315,5.302,36.816,5.302S8.715,17.915,8.715,33.405c0,0.528-0.427,0.954-0.953,0.954c-0.518,0-0.943-0.426-0.943-0.954
					c0-16.544,13.462-29.999,29.999-29.999c16.544,0,29.999,13.455,29.999,29.999C66.815,49.951,53.36,63.406,36.816,63.406"/>
			</g>
		</g>
	</g>
	<g>
		<g>
			<g>
				<defs>
					<rect id="SVGID_5_" x="-0.002" y="3.406" width="66.816" height="60"/>
				</defs>
				<clipPath id="SVGID_6_">
					<use xlink:href="#SVGID_5_"  overflow="visible"/>
				</clipPath>
				<path clip-path="url(#SVGID_6_)" d="M45.875,45.287c-0.275,0-0.545-0.11-0.729-0.341l-9.062-10.931
					c-0.138-0.175-0.211-0.388-0.211-0.61V15.241c0-0.525,0.424-0.952,0.941-0.952c0.527,0,0.952,0.427,0.952,0.952v17.832
					l8.829,10.67c0.341,0.396,0.275,0.999-0.121,1.331C46.302,45.222,46.088,45.287,45.875,45.287"/>
			</g>
		</g>
	</g>
</g>
</svg>
