<svg xmlns="http://www.w3.org/2000/svg" xmlns:xlink="http://www.w3.org/1999/xlink" width="57.316" height="57.316" viewBox="0 0 57.316 57.316"><defs><path id="a" d="M-.007 3.658h57.33v50H-.007z"/></defs><clipPath id="b"><use xlink:href="#a" overflow="visible"/></clipPath><path clip-path="url(#b)" d="M52.98 45.354H1.992c-1.104 0-2-.896-2-2V5.658c0-1.104.896-2 2-2h53.33c1.105 0 2 .896 2 2v37.696c0 1.104-.895 2-2 2H52.98zM1.73 7.397v34.216c0 1.105.895 2 2 2h49.86c1.105 0 2-.895 2-2V7.397c0-1.105-.895-2-2-2H3.733c-1.105 0-2 .895-2 2M39.738 53.658h-22.15c-.484 0-.875-.39-.875-.864 0-.484.39-.873.875-.873h22.15c.476 0 .864.39.864.874 0 .476-.388.864-.864.864"/><path clip-path="url(#b)" d="M28.658 53.658c-.476 0-.864-.39-.864-.864V44.49c0-.485.388-.876.864-.876.483 0 .875.39.875.875v8.304c0 .476-.39.864-.875.864"/><g clip-path="url(#b)"><path d="M23.28 32.726h.75v-15.14l11.986 6.92-13.112 7.57.375.65h.75-.75l.374.65 15.362-8.87-16.487-9.518v19.036l1.124-.65"/></g></svg>