<?xml version="1.0" encoding="utf-8"?>
<!-- Generator: Adobe Illustrator 16.0.3, SVG Export Plug-In . SVG Version: 6.00 Build 0)  -->
<!DOCTYPE svg PUBLIC "-//W3C//DTD SVG 1.1//EN" "http://www.w3.org/Graphics/SVG/1.1/DTD/svg11.dtd">
<svg version="1.1" id="Layer_1" xmlns="http://www.w3.org/2000/svg" xmlns:xlink="http://www.w3.org/1999/xlink" x="0px" y="0px"
	 width="26.506px" height="15px" viewBox="0 0 26.506 15" xml:space="preserve">
<g>
	<path fill-rule="evenodd" clip-rule="evenodd" d="M22.812,9.538c0.879,0.858,1.807,1.665,2.596,2.61
		c0.348,0.42,0.678,0.854,0.93,1.341c0.358,0.692,0.034,1.455-0.587,1.497l-3.861-0.003c-0.996,0.083-1.791-0.317-2.459-0.998
		c-0.534-0.545-1.029-1.125-1.544-1.688c-0.211-0.23-0.431-0.446-0.694-0.617c-0.527-0.343-0.984-0.238-1.286,0.312
		c-0.306,0.56-0.376,1.179-0.406,1.803c-0.042,0.908-0.315,1.147-1.229,1.188c-1.953,0.093-3.804-0.203-5.525-1.187
		c-1.517-0.869-2.694-2.095-3.718-3.481C3.033,7.614,1.506,4.645,0.134,1.594c-0.309-0.688-0.083-1.057,0.676-1.07
		C2.069,0.5,3.329,0.5,4.59,0.521C5.102,0.53,5.441,0.823,5.638,1.307c0.682,1.676,1.516,3.27,2.563,4.748
		c0.278,0.394,0.563,0.787,0.968,1.064c0.448,0.307,0.788,0.205,0.999-0.294c0.134-0.316,0.192-0.657,0.222-0.995
		c0.1-1.166,0.113-2.329-0.062-3.491c-0.107-0.725-0.515-1.194-1.239-1.331C8.72,0.938,8.775,0.801,8.954,0.59
		C9.264,0.227,9.556,0,10.138,0h4.364c0.688,0.136,0.84,0.445,0.935,1.136l0.004,4.847c-0.009,0.268,0.133,1.062,0.614,1.24
		c0.387,0.126,0.641-0.183,0.872-0.428c1.045-1.109,1.79-2.419,2.457-3.776c0.295-0.597,0.551-1.217,0.796-1.836
		c0.184-0.46,0.47-0.685,0.986-0.676l4.201,0.004c0.124,0,0.25,0.002,0.371,0.023c0.708,0.12,0.901,0.425,0.683,1.116
		c-0.345,1.084-1.015,1.988-1.67,2.896c-0.7,0.969-1.45,1.905-2.144,2.88C21.969,8.315,22.02,8.765,22.812,9.538"/>
</g>
</svg>
