<?xml version="1.0" encoding="utf-8"?>
<!-- Generator: Adobe Illustrator 16.0.3, SVG Export Plug-In . SVG Version: 6.00 Build 0)  -->
<!DOCTYPE svg PUBLIC "-//W3C//DTD SVG 1.1//EN" "http://www.w3.org/Graphics/SVG/1.1/DTD/svg11.dtd">
<svg version="1.1" id="Layer_1" xmlns="http://www.w3.org/2000/svg" xmlns:xlink="http://www.w3.org/1999/xlink" x="0px" y="0px"
	 width="20px" height="20px" viewBox="0 0 20 20" xml:space="preserve">
<g>
	<path d="M14.48,0H5.52C2.476,0,0,2.476,0,5.52v8.961C0,17.524,2.476,20,5.52,20h8.961
		c3.044,0,5.519-2.477,5.519-5.52V5.52C19.999,2.476,17.524,0,14.48,0 M18.226,14.48c0,2.065-1.68,3.745-3.745,3.745H5.52
		c-2.065,0-3.745-1.68-3.745-3.745V5.52c0-2.065,1.68-3.745,3.745-3.745h8.961c2.065,0,3.745,1.68,3.745,3.745V14.48z"/>
	<path d="M10,4.847c-2.842,0-5.154,2.312-5.154,5.153c0,2.842,2.312,5.154,5.154,5.154
		c2.841,0,5.154-2.312,5.154-5.154C15.154,7.159,12.841,4.847,10,4.847 M10,13.379c-1.863,0-3.379-1.516-3.379-3.379
		c0-1.862,1.515-3.379,3.379-3.379c1.864,0,3.379,1.517,3.379,3.379C13.379,11.863,11.863,13.379,10,13.379"/>
	<path d="M15.37,3.342c-0.343,0-0.679,0.138-0.919,0.381c-0.243,0.241-0.383,0.577-0.383,0.92
		c0,0.342,0.14,0.678,0.383,0.921c0.24,0.241,0.576,0.38,0.919,0.38s0.678-0.139,0.92-0.38c0.243-0.243,0.381-0.579,0.381-0.921
		c0-0.343-0.138-0.679-0.381-0.92C16.049,3.48,15.713,3.342,15.37,3.342"/>
</g>
</svg>
