<?xml version="1.0" encoding="utf-8"?>
<!-- Generator: Adobe Illustrator 16.0.3, SVG Export Plug-In . SVG Version: 6.00 Build 0)  -->
<!DOCTYPE svg PUBLIC "-//W3C//DTD SVG 1.1//EN" "http://www.w3.org/Graphics/SVG/1.1/DTD/svg11.dtd">
<svg version="1.1" id="Layer_1" xmlns="http://www.w3.org/2000/svg" xmlns:xlink="http://www.w3.org/1999/xlink" x="0px" y="0px"
	 width="1107.014px" height="1107.014px" viewBox="0 0 1107.014 1107.014" enable-background="new 0 0 1107.014 1107.014"
	 xml:space="preserve">
<g transform="translate(0.000000,1107.000000) scale(0.100000,-0.100000)">
	<path d="M5390.1,10934.999c-8.008-2.002-73.008-7.998-145-13.999c-235-20-537.002-80-720-143.003
		c-16.006-5-43.008-12.998-60-17.998c-16.006-5-55-17.998-85-30s-69.004-26.001-87.002-31.001s-35-13.999-37.998-18.999
		c-4.004-6.001-13.008-10-21.006-10c-35,0-333.994-150-453.994-228.999c-30-20-59.004-38.003-65-41.001
		c-22.002-11.001-105-67.998-180-123.999c-225-168.003-454.004-396.001-632.998-633.003c-34.004-45-62.002-83.999-62.002-86.997
		c0-3.003-19.004-33.003-42.998-68.003c-24.004-35-46.006-70-50-77.998c-4.004-7.998-17.002-31.001-28.008-50
		c-26.992-43.999-90-167.998-121.992-240c-23.008-52.998-33.008-78.999-72.002-179.999c-9.004-25-22.998-60-31.006-77.998
		c-7.998-18.004-13.994-40-13.994-48.004c0-8.998-7.002-36.996-15-62.998c-32.002-105-64.004-258.002-86.006-416
		c-8.994-62.002-13.994-296.001-15.996-750c-2.998-421.001-7.998-664.004-14.004-670.996c-5.996-7.002-28.994-15-51.992-19.004
		c-87.002-12.998-219.004-60.996-347.002-125c-217.002-109.004-456.006-330-576.006-535c-15.996-27.002-33.994-59.004-40.996-70
		s-15-27.002-19.004-35c-3.994-7.998-16.992-37.002-28.994-65c-47.002-102.002-87.002-247.002-110-390
		c-12.998-89.004-15-349.004-15-2145c0-2170.996-1.006-2135,45-2295.996c7.998-28.008,15-58.008,15-67.002
		c0-9.004,5.996-31.006,13.994-49.004C1242.102,1100,1256.096,1065,1265.1,1040c73.994-192.002,215.996-397.998,365.996-530.996
		c77.002-68.008,182.998-151.006,209.004-162.002c7.998-4.004,28.994-16.006,45-26.006c45-28.994,138.994-73.994,220-103.994
		c127.998-49.004,243.994-74.004,397.998-87.002c172.998-14.004,5963.994-14.004,6125.996,0
		c156.006,14.004,252.998,35.996,419.004,95c22.998,7.998,50,19.004,60,24.004c8.994,5,37.002,18.994,62.002,30.996
		s58.994,30,75,40.996c16.992,10,36.992,22.002,45,26.006c35.996,15.996,180,132.998,250,202.002
		c68.994,68.994,185.996,213.994,202.998,250.996c3.994,7.998,17.002,30.996,27.998,50c35,59.004,60,110,102.998,212.998
		c7.002,17.002,20,57.002,29.004,87.002c68.994,242.998,65.996,154.004,65.996,2375c0,1662.998-2.002,2000.996-13.994,2110
		c-24.004,212.998-48.008,297.002-144.004,495c-107.002,222.998-270,409.004-487.002,555c-82.002,55-250.996,145-272.998,145
		c-5.996,0-25,5.996-42.998,14.004c-47.998,20-127.002,42.998-172.998,50.996c-22.002,4.004-46.006,10.996-52.002,17.002
		c-10,7.998-12.998,132.002-12.998,555c0,565.996-10,823.999-36.006,977.999c-27.998,158.998-60.996,293.998-100.996,410
		c-14.004,38.998-27.998,85-32.998,103.998c-5,18.004-13.008,38.004-19.004,44c-5.996,6-10.996,17.001-10.996,24.003
		c0,21.997-101.006,232.998-149.004,313.999c-12.002,18.999-24.004,41.001-27.998,48.999c-2.998,7.998-17.998,32.998-32.002,55
		s-30,47.998-35.996,57.002c-115,187.998-349.004,453.999-570,646.997c-161.006,141.001-420,313.003-630,418.999
		c-16.006,8.003-37.002,19.004-45,23.003c-8.008,5-22.002,11.997-30,15c-8.008,3.999-37.002,16.997-65,28.999
		c-73.008,32.998-127.002,56.001-155,65c-14.004,5-50,17.998-80,30s-68.008,25-85,30c-16.006,5-43.008,12.998-60,17.998
		c-170,58.003-437.002,113.003-700,143.003C5809.094,10932.001,5421.096,10942.997,5390.1,10934.999z M5988.098,10504.999
		c235.996-38.999,432.002-83.999,520-121.001c17.998-7.998,38.994-13.999,47.002-13.999c7.998,0,28.994-6.001,46.992-13.999
		c18.008-8.003,53.008-22.002,78.008-31.001c90.996-35,350-160,405-195c16.992-11.001,38.994-23.999,50-30
		c65-32.998,243.994-160,342.998-243.999c118.994-98.999,325.996-318.003,417.002-441.001
		c37.998-51.001,128.994-186.001,137.998-205c3.994-7.998,15.996-30,27.998-48.999c35.996-61.001,100-191,135-276
		c5.996-16.002,19.004-47.002,27.998-67.998c9.004-21.002,16.006-44.004,16.006-52.002s5.996-29,13.994-47.002
		c27.998-64,67.998-239,91.006-392.998c13.994-95,15.996-197.999,12.998-750l-2.998-640l-2779.004-2.998
		c-2045.996-1.006-2782.002,0.996-2792.002,8.994c-11.992,9.004-13.994,119.004-12.998,618.003c0,706.001,4.004,776.001,55,986.001
		c50,203.998,139.004,438.998,214.004,564.999c27.998,47.002,112.002,187.998,122.998,205
		c19.004,31.001,120.996,166.001,157.998,210c185,217.002,489.004,477.002,674.004,575c10.996,6.001,33.994,18.999,50,28.999
		c30,18.999,271.992,141.001,330,166.001c16.992,7.002,50,20,75,30c25,8.999,60,22.998,77.998,31.001
		c17.998,7.998,38.994,13.999,47.002,13.999c7.998,0,28.994,6.001,46.992,13.999C4705.1,10417.997,4885.1,10461,5115.1,10501
		C5298.098,10532.001,5804.094,10534.999,5988.098,10504.999z M8707.092,6510.996c128.008-26.992,169.004-40,273.008-90.996
		c273.994-132.998,471.992-380,556.992-695c15-54.004,17.002-259.004,20-2170c3.008-1912.998,2.002-2117.002-11.992-2185
		c-9.004-40.996-23.008-90-31.006-107.998s-13.994-39.004-13.994-46.006c0-7.998-16.006-46.992-36.006-86.992
		c-110.996-226.006-285-399.004-503.994-501.006c-95-43.994-128.008-55.996-215-75.996c-65-16.006-309.004-17.002-3180-17.002
		c-2871.006,0-3115,0.996-3180,17.002c-90,20.996-177.002,52.002-225,78.994c-7.998,5-25,13.008-37.998,19.004
		c-121.006,52.002-311.006,230.996-399.004,375c-47.002,77.002-100,202.998-129.004,305c-17.998,62.002-18.994,150.996-18.994,2205
		c0,2007.002,0.996,2142.998,17.002,2185c10,25,17.998,52.998,17.998,62.002c0,17.998,12.998,50,63.994,157.998
		c93.008,197.002,277.002,382.998,476.006,480c100.996,49.004,145.996,64.004,265,90c75,17.002,267.998,17.998,3140.996,19.004
		C8521.096,6530,8620.1,6529.003,8707.092,6510.996z"/>
	<path d="M5400.1,5314.003c-25-7.002-53.008-14.004-63.008-14.004c-53.994,0-283.994-139.003-345.996-209.003
		c-117.998-132.998-172.998-237.998-210.996-402.998c-19.004-82.998-20-125-20-755.996c0-625,0.996-675,18.994-757.998
		c27.998-126.006,50-180,117.002-284.004c100.996-157.002,250-267.998,454.004-335.996c83.994-29.004,348.994-26.006,441.992,2.998
		c36.006,12.002,75,25.996,85,30.996s38.008,20,63.008,32.002c137.998,70,265,199.004,338.994,347.002
		c86.006,168.994,90,217.002,91.006,960c0,385-4.004,652.002-11.006,700c-10.996,83.994-45.996,210-60,218.994
		c-5,3.008-8.994,11.006-8.994,19.004c0,25-74.004,137.998-130,197.998c-113.008,122.001-252.002,206.005-407.002,246.005
		C5654.094,5334.003,5472.092,5337.001,5400.1,5314.003z M5647.092,4917.998c121.006-28.994,224.004-112.002,279.004-222.998
		l29.004-60l2.998-690c2.002-630.996,0.996-694.004-15-740c-9.004-27.002-22.998-57.002-30-65.996c-7.002-8.008-12.998-20-12.998-25
		c0-16.006-77.002-92.002-121.006-120c-127.002-80-272.002-84.004-412.998-10c-50,25-120.996,101.992-157.002,167.998L5175.1,3215
		v712.002v712.002l35,65.996C5297.092,4870.996,5479.094,4959.004,5647.092,4917.998z"/>
</g>
</svg>
