<?xml version="1.0" encoding="utf-8"?>
<!-- Generator: Adobe Illustrator 19.2.1, SVG Export Plug-In . SVG Version: 6.00 Build 0)  -->
<svg version="1.1" id="Layer_1" xmlns="http://www.w3.org/2000/svg" xmlns:xlink="http://www.w3.org/1999/xlink" x="0px" y="0px"
	 viewBox="0 0 65.1 50" style="enable-background:new 0 0 65.1 50;" xml:space="preserve">
<style type="text/css">
	.st0{fill:#545758;}
	.st1{fill:#48D9B3;}
</style>
<g>
	<path class="st0" d="M53.3,22.2c3.8,0,6.8-3.1,6.8-6.8c0-3.8-3.1-6.8-6.8-6.8c-3.8,0-6.8,3.1-6.8,6.8
		C46.4,19.1,49.5,22.2,53.3,22.2z M53.3,9.9c3,0,5.5,2.5,5.5,5.5c0,3-2.5,5.5-5.5,5.5s-5.5-2.5-5.5-5.5C47.8,12.3,50.2,9.9,53.3,9.9
		z"/>
	<path class="st0" d="M53.3,27c-1.9,0-3.9,0.5-5.6,1.4c-0.2,0.1-0.3,0.2-0.3,0.4c-0.1,0.2,0,0.4,0.1,0.5c0.1,0.2,0.2,0.3,0.4,0.3
		c0.2,0.1,0.4,0,0.5-0.1c1.5-0.8,3.2-1.2,4.9-1.2c5.2,0,9.5,3.7,10.3,8.8l0.2,1H53.3c-0.4,0-0.7,0.3-0.7,0.7c0,0.4,0.3,0.7,0.7,0.7
		h11.2c0.4,0,0.7-0.3,0.7-0.7C65.1,32.3,59.8,27,53.3,27z"/>
	<path class="st0" d="M12,38.1H1.3l0.2-1c0.8-5.1,5.2-8.8,10.3-8.8c1.7,0,3.4,0.4,4.9,1.2c0.3,0.2,0.7,0.1,0.9-0.3
		c0.2-0.3,0.1-0.7-0.3-0.9c-1.7-0.9-3.6-1.4-5.6-1.4C5.3,27,0,32.3,0,38.8c0,0.4,0.3,0.7,0.7,0.7H12c0.4,0,0.7-0.3,0.7-0.7
		C12.6,38.4,12.3,38.1,12,38.1z"/>
	<path class="st0" d="M11.8,22.2c3.8,0,6.8-3.1,6.8-6.8c0-3.8-3.1-6.8-6.8-6.8C8.1,8.5,5,11.6,5,15.3C5,19.1,8.1,22.2,11.8,22.2z
		 M11.8,9.9c3,0,5.5,2.5,5.5,5.5c0,3-2.5,5.5-5.5,5.5c-3,0-5.5-2.5-5.5-5.5C6.4,12.3,8.8,9.9,11.8,9.9z"/>
	<g>
		<path class="st1" d="M33.1,23c6.3,0,11.5-5.1,11.5-11.5C44.6,5.1,39.5,0,33.1,0c-6.3,0-11.5,5.1-11.5,11.5
			C21.6,17.8,26.8,23,33.1,23z"/>
		<path class="st1" d="M33.1,29C22,29,13,38.1,13,49.1c0,0.5,0.4,0.9,0.9,0.9h38.5c0.5,0,0.9-0.4,0.9-0.9C53.2,38.1,44.2,29,33.1,29
			z"/>
	</g>
</g>
</svg>
