<?xml version="1.0" encoding="utf-8"?>
<!-- Generator: Adobe Illustrator 19.2.1, SVG Export Plug-In . SVG Version: 6.00 Build 0)  -->
<svg version="1.1" id="Layer_1" xmlns="http://www.w3.org/2000/svg" xmlns:xlink="http://www.w3.org/1999/xlink" x="0px" y="0px"
	 viewBox="0 0 82.7 51.1" style="enable-background:new 0 0 82.7 51.1;" xml:space="preserve">
<style type="text/css">
	.st0{fill:#545758;}
	.st1{fill:none;}
	.st2{fill:#62C3AA;}
</style>
<g>
	<g>
		<path class="st0" d="M64.7,44.1l-1.4-0.6c-0.1,0-11.7-4.8-21.8-4.8c-10.1,0-21.7,4.8-21.8,4.8l-1.4,0.6V29.7l0.5-0.3
			c0.5-0.3,11.2-6.3,22.5-6.3c11.3,0,22.4,5.8,22.9,6.1l0.5,0.3V44.1z M20.2,30.9v10.2c3.4-1.3,12.7-4.4,21.2-4.4
			c8.5,0,17.8,3.1,21.2,4.4V30.7c-2.3-1.1-12-5.6-21.4-5.6C31.8,25.2,22.5,29.7,20.2,30.9z"/>
	</g>
	<polygon class="st1" points="76.2,20.9 78.5,22.2 76.2,20.9 	"/>
	<g>
		<path class="st0" d="M65.2,32.7V28c-2.5-1.2-13.4-6.2-24-6.2c-10.6,0-21.2,5.2-23.6,6.4v3.1L0,23.2L40.5,0l42.2,23.4L65.2,32.7z
			 M41.3,19.7c12.5,0,24.9,6.5,25.4,6.7l0.5,0.3v2.7l8.4-4.5h0l2.8-1.5L67.1,17L40.5,2.3L4.4,23l11.3,5.1v-1.2l0.5-0.3
			C16.7,26.4,28.7,19.7,41.3,19.7z"/>
	</g>
	<polygon points="78.5,22.2 78.5,22.2 78.5,22.2 	"/>
	<path class="st2" d="M76.2,45V30.6v-4l0-6.6l0,0v-1c0,0,1-5.9-6.1-2.6c0.5,0.3,1.9,1.1,1.9,1.1c0.5-0.3,2.2-1.1,2.2,0.4v1V19v11.9
		v14h-2.7v6.2l3.5-2.4l3.9,2.4V45H76.2z"/>
</g>
</svg>
