<?xml version="1.0" encoding="utf-8"?>
<!-- Generator: Adobe Illustrator 19.2.1, SVG Export Plug-In . SVG Version: 6.00 Build 0)  -->
<svg version="1.1" id="Layer_1" xmlns="http://www.w3.org/2000/svg" xmlns:xlink="http://www.w3.org/1999/xlink" x="0px" y="0px"
	 viewBox="0 0 73.6 60" style="enable-background:new 0 0 73.6 60;" xml:space="preserve">
<style type="text/css">
	.st0{fill:#545758;}
	.st1{fill:#48D9B3;}
	.st2{fill:none;}
</style>
<path class="st0" d="M64.7,16.3c0.6,0,1.1-0.5,1.1-1.1v-1.2c0-0.6-0.5-1.1-1.1-1.1c-0.6,0-1.1,0.5-1.1,1.1v1.2
	C63.6,15.9,64.1,16.3,64.7,16.3L64.7,16.3z M64.7,16.3"/>
<path class="st1" d="M27.5,21.3c0,0,1.3,7,8,7.5s10-8,10-8"/>
<path class="st2" d="M37,38.9C26.8,38.9,21,47.1,19,50.6l0,0.1c5.5,1.8,11.6,2.8,18,2.8c6.3,0,12.5-1,18-2.8l0-0.1
	C52.9,47.1,47.2,38.9,37,38.9z"/>
<path class="st0" d="M14,48.7l7.7-24.3c0.2-0.5-0.1-1-0.6-1.2c-1.9-0.8-3.6-0.8-5.2,0.1c-2.9,1.6-4.4,5.8-5,8.1l0,0.1l-4-3.2l0-0.1
	c1.3-3.9,3.1-6.4,5.4-7.7c1.7-0.9,3.7-1.1,5.8-0.6c2.6,0.7,5,1.1,7.3,1.4l0.1,0l0,0c0.8,0.1,2.1,0.2,3.8,0.2h14.5h0.9h2.4
	c0.4-0.6,0.7-1.1,1-1.6c2.4-4.1,4.7-7.7,6.9-10c2.3-2.3,4.5-3.4,7.2-3.4c0.5,0,0.9-0.3,1-0.8c0-0.1,0.2-1.1,0.8-2
	c0.5-0.8,1.1-1.3,1.8-1.6l0.1,0v0.1c0,1.4,0,3.9,0,5.7c0,0.3,0.1,0.5,0.3,0.7l1.1,1.1c0.6,0.6,1.1,1.4,1.3,2.3l2.4,10.5
	c0.3,1.3-0.3,2.5-1.5,3.1c-0.9,0.4-2,0.4-2.8-0.2l-8.6-5.7c-0.3-0.2-0.6-0.2-0.9-0.1c-0.3,0.1-0.5,0.4-0.6,0.7
	c-3.1,12.1,1.5,24.7,3,28.3l0,0.1l-3,1.3l0-0.1c-1-1.8-2.7-4.5-5.3-7c-4.2-4-9.1-6-14.5-6c-5.4,0-10.3,2-14.5,6
	c-2.6,2.5-4.4,5.2-5.4,7l0,0c0.6,0.2,1.2,0.4,1.9,0.7l0-0.1c2-3.5,7.7-11.7,17.9-11.7c10.2,0,15.9,8.2,17.9,11.7l0,0.1
	c2.4-0.8,4.6-1.7,6.7-2.8l0-0.1c-1.3-3.2-5.5-14.5-3.2-25.5l0-0.1l0.1,0.1l7.3,4.8c1.4,0.9,3.2,1.1,4.8,0.3c2-1,3-3.2,2.5-5.3
	l-2.4-10.5c-0.3-1.2-0.9-2.4-1.8-3.3L68,7.5l0-3.9c0-0.6,0-1.1,0-1.5l0-1C68,0.3,67.4,0,67,0c-3.7,0-5.1,3.5-5.4,4.6l0,0.1l-0.1,0
	c-2.9,0.2-5.4,1.5-7.8,3.9c-2.4,2.5-4.7,6.2-7.2,10.3c-0.1,0.2-0.3,0.4-0.4,0.6l0,0H29.2c-3.2,0-6.6-0.5-10.5-1.5
	c-3.7-1-10.4-0.9-13.8,10.3c-0.1,0.4,0,0.8,0.3,1.1l5.8,4.6c0.3,0.2,0.6,0.3,1,0.1c0.3-0.1,0.6-0.4,0.6-0.8c0.3-1.9,1.7-7,4.4-8.5
	c0.8-0.4,1.6-0.5,2.5-0.3l0.1,0l0,0.1l-7.3,23.1C12.8,48.2,13.4,48.5,14,48.7L14,48.7z"/>
<path class="st1" d="M72.8,43.7c-0.6-0.7-1.4-1.1-2.3-1.1c-0.1,0-0.2,0-0.2,0c-0.8,0-1.6,0.3-2.2,0.8c-1.9,1.7-4.2,3.1-6.7,4.4
	c-2.1,1.1-4.3,2-6.7,2.8c-5.5,1.8-11.6,2.8-18,2.8c-6.3,0-12.5-1-18-2.8c-0.6-0.2-1.3-0.4-1.9-0.7c-1.1-0.4-2.1-0.8-3.1-1.3
	c-0.6-0.3-1.2-0.6-1.8-0.9c-2.4-1.3-4.6-2.7-6.5-4.4c-0.6-0.5-1.4-0.8-2.2-0.8c-0.1,0-0.2,0-0.3,0c-0.9,0.1-1.7,0.5-2.3,1.1
	c-0.6,0.7-0.9,1.5-0.8,2.4c0.1,0.9,0.5,1.7,1.1,2.3C9.7,55.8,22.7,60,36.8,60c14.1,0,27.1-4.2,35.7-11.6c0.7-0.6,1.1-1.4,1.1-2.3
	C73.7,45.2,73.4,44.3,72.8,43.7z"/>
</svg>
