<?xml version="1.0" encoding="utf-8"?>
<!-- Generator: Adobe Illustrator 19.2.1, SVG Export Plug-In . SVG Version: 6.00 Build 0)  -->
<svg version="1.1" id="Layer_1" xmlns="http://www.w3.org/2000/svg" xmlns:xlink="http://www.w3.org/1999/xlink" x="0px" y="0px"
	 viewBox="0 0 71 58" style="enable-background:new 0 0 71 58;" xml:space="preserve">
<style type="text/css">
	.st0{fill:#48D9B3;}
	.st1{display:none;fill:#48D9B3;}
	.st2{fill:none;}
	.st3{fill:#5E5E5E;}
</style>
<circle class="st0" cx="61.6" cy="21.3" r="2.9"/>
<circle class="st0" cx="35.5" cy="33" r="13"/>
<path class="st1" d="M35.5,17.5C27,17.5,20,24.4,20,33c0,8.5,7,15.5,15.5,15.5S51,41.5,51,33C51,24.4,44.1,17.5,35.5,17.5z M46.3,33
	c0,5.9-4.8,10.7-10.8,10.7c-5.9,0-10.8-4.8-10.8-10.7c0-5.9,4.8-10.8,10.8-10.8C41.4,22.2,46.3,27,46.3,33z"/>
<rect x="8.5" y="7.3" class="st0" width="4.4" height="5.5"/>
<path class="st2" d="M65.3,14.2H53.6L48.9,2.4H22.1l-4.7,11.8H5.7c-1.8,0-3.3,1.5-3.3,3.3v34.8c0,1.8,1.5,3.4,3.4,3.4h59.6
	c1.8,0,3.4-1.5,3.4-3.4V17.5C68.7,15.7,67.2,14.2,65.3,14.2z"/>
<path class="st3" d="M65.3,11.8H55.2L50.5,0h-30l-4.7,11.8h-0.9h-0.7h-2.4H9.5H7.1h-1H5.7c-3.1,0-5.7,2.5-5.7,5.7v34.8
	C0,55.4,2.6,58,5.7,58h59.6c3.2,0,5.7-2.6,5.7-5.7V17.5C71,14.4,68.5,11.8,65.3,11.8z M68.7,52.3c0,1.9-1.5,3.4-3.4,3.4H5.7
	c-1.8,0-3.4-1.5-3.4-3.4V17.5c0-1.8,1.5-3.3,3.3-3.3h11.7l4.7-11.8h26.8l4.7,11.8h11.7c1.8,0,3.3,1.5,3.3,3.3V52.3z"/>
</svg>
