<?xml version="1.0" encoding="utf-8"?>
<!-- Generator: Adobe Illustrator 16.0.3, SVG Export Plug-In . SVG Version: 6.00 Build 0)  -->
<!DOCTYPE svg PUBLIC "-//W3C//DTD SVG 1.1//EN" "http://www.w3.org/Graphics/SVG/1.1/DTD/svg11.dtd">
<svg version="1.1" id="Layer_1" xmlns="http://www.w3.org/2000/svg" xmlns:xlink="http://www.w3.org/1999/xlink" x="0px" y="0px"
	 width="299.99px" height="299.99px" viewBox="0 0 299.99 299.99" enable-background="new 0 0 299.99 299.99" xml:space="preserve">
<g transform="translate(0.000000,214.000000) scale(0.050000,-0.050000)">
	<path d="M245.269,3368.095c-56.992-27.998-103.008-57.998-103.008-65c3.008-20.996,2836.015-2432.998,2859.004-2432.998
		c23.008,0,2855.995,2412.002,2859.003,2432.998c0,7.002-45.996,37.002-103.008,65l-104.004,52.002H3001.264H349.272
		L245.269,3368.095z"/>
	<path d="M1.265,1271.093V-504.902l60,46.992c162.012,128.008,1998.008,1690,1999.004,1701.015
		c0.996,12.988-34.004,43.994-1179.004,1035.996c-424.004,365.996-795,688.994-825,716.992l-55,51.006V1271.093z"/>
	<path d="M5700.268,2783.095c-160-138.994-620.996-540-1024.999-890c-404.004-350.996-733.008-642.998-733.008-649.99
		c0.996-7.012,462.012-403.008,1024.999-879.003l1024.004-865.996l5,878.984c3.008,484.003,3.008,1280.009,0,1769.003l-5,890
		L5700.268,2783.095z"/>
	<path d="M1194.272,165.098C616.265-326.895,143.276-735.898,142.261-742.91c0-6.992,46.016-36.992,103.008-65l104.004-51.992
		h2651.992h2651.991l104.004,51.992c57.012,28.008,103.008,58.008,102.012,65c-2.012,17.012-2071.015,1782.011-2104.003,1794.003
		c-14.004,5.996-185-130-380.996-300.996c-196.016-170-364.004-310-373.008-310s-176.992,140-371.992,310
		c-195.996,170.996-363.008,310-370.996,310C2250.268,1060.097,1771.264,657.089,1194.272,165.098z"/>
</g>
</svg>
