<?xml version="1.0" encoding="utf-8"?>
<!-- Generator: Adobe Illustrator 16.0.3, SVG Export Plug-In . SVG Version: 6.00 Build 0)  -->
<!DOCTYPE svg PUBLIC "-//W3C//DTD SVG 1.1//EN" "http://www.w3.org/Graphics/SVG/1.1/DTD/svg11.dtd">
<svg version="1.1" id="Layer_1" xmlns="http://www.w3.org/2000/svg" xmlns:xlink="http://www.w3.org/1999/xlink" x="0px" y="0px"
	 width="374.996px" height="374.996px" viewBox="0 0 374.996 374.996" enable-background="new 0 0 374.996 374.996"
	 xml:space="preserve">
<g transform="translate(0.000000,375.000000) scale(0.050000,-0.050000)">
	<path d="M3421.01,7478.339c-1705.996-205.996-2900-1790.996-2612.988-3470.996C997.007,2894.336,2036.01,1378.34,3414.018,203.34
		c315.996-270,357.988-270,673.984,0C5498.002,1409.336,6532.006,2934.336,6701.01,4054.345
		C6992.025,5991.347,5346.011,7709.345,3421.01,7478.339z M4052.007,5888.339c1048.008-221.992,1497.011-1482.998,827.012-2321.992
		c-849.004-1065-2572.012-462.012-2570.996,900C2308.022,5398.339,3146.01,6081.347,4052.007,5888.339z"/>
</g>
</svg>
