<?xml version="1.0" encoding="utf-8"?>
<!-- Generator: Adobe Illustrator 16.0.3, SVG Export Plug-In . SVG Version: 6.00 Build 0)  -->
<!DOCTYPE svg PUBLIC "-//W3C//DTD SVG 1.1//EN" "http://www.w3.org/Graphics/SVG/1.1/DTD/svg11.dtd">
<svg version="1.1" id="Layer_1" xmlns="http://www.w3.org/2000/svg" xmlns:xlink="http://www.w3.org/1999/xlink" x="0px" y="0px"
	 width="449.008px" height="449.008px" viewBox="0 0 449.008 449.008" enable-background="new 0 0 449.008 449.008"
	 xml:space="preserve">
<g transform="translate(0.000000,449.000000) scale(0.050000,-0.050000)">
	<path d="M4163.071,8958.124C2719.086,8790.116,1631.079,7661.122,1510.083,6204.12c-25-305.996-25-3124.003,0-3430
		c215-2599.004,3350.996-3715,5149.999-1831.992c480,501.992,750,1113.984,810,1831.992c25,305.996,25,3124.003,0,3430
		C7329.086,7906.122,5834.086,9152.118,4163.071,8958.124z M4870.083,8619.12c1174.004-182.002,2091.992-1102.998,2250-2260
		c43.008-307.002,43.008-3433.007,0-3740c-215-1573.008-1799.003-2614.004-3330.996-2189.004
		c-1026.016,285-1787.011,1148.008-1929.004,2189.004c-43.008,306.992-43.008,3432.998,0,3740
		C2057.075,7797.118,3445.083,8839.12,4870.083,8619.12z"/>
	<path d="M4379.086,7930.116l-49.004-48.994V7069.12c0-862.998,0.996-872.002,100-907.002c73.008-25,170.996,2.998,200,57.998
		c11.992,22.002,20,357.002,20,849.004v812.002l-49.004,48.994c-30.996,31.006-71.992,49.004-110.996,49.004
		S4410.083,7961.122,4379.086,7930.116z"/>
</g>
</svg>
