<?xml version="1.0" encoding="utf-8"?>
<!-- Generator: Adobe Illustrator 16.0.3, SVG Export Plug-In . SVG Version: 6.00 Build 0)  -->
<!DOCTYPE svg PUBLIC "-//W3C//DTD SVG 1.1//EN" "http://www.w3.org/Graphics/SVG/1.1/DTD/svg11.dtd">
<svg version="1.1"
	 id="svg2" xmlns:dc="http://purl.org/dc/elements/1.1/" xmlns:rdf="http://www.w3.org/1999/02/22-rdf-syntax-ns#" xmlns:svg="http://www.w3.org/2000/svg" xmlns:cc="http://creativecommons.org/ns#"
	 xmlns="http://www.w3.org/2000/svg" xmlns:xlink="http://www.w3.org/1999/xlink" x="0px" y="0px" width="546.662px"
	 height="546.662px" viewBox="0 0 546.662 546.662" enable-background="new 0 0 546.662 546.662" xml:space="preserve">
<g id="g10" transform="matrix(1.3333333,0,0,-1.3333333,0,377.33333)">
	<g id="g12" transform="scale(0.1)">
		<g id="g14">
			<g>
				<g id="g16">
					<path id="path22" d="M900.006,1164.048c494.839,0,896.016-401.177,896.016-896.016c0-494.846-401.177-896.023-896.016-896.023
						S3.983-226.814,3.983,268.032L0.006,396.037c0,989.693,802.295,1791.995,1791.988,1791.995V1676.04
						c-341.873,0-663.318-133.169-905.076-374.919c-46.56-46.531-89.026-96.064-127.346-148.088
						C805.355,1160.261,852.23,1164.048,900.006,1164.048z M3203.985,1164.048c494.846,0,896.016-401.177,896.016-896.016
						c0-494.846-401.169-896.023-896.016-896.023s-895.972,401.177-895.972,896.023l-4.028,128.005
						c0,989.693,802.31,1791.995,1792.039,1791.995V1676.04c-341.924,0-663.362-133.169-905.12-374.919
						c-46.523-46.531-89.026-96.064-127.31-148.088C3109.342,1160.261,3156.209,1164.048,3203.985,1164.048L3203.985,1164.048z"/>
				</g>
			</g>
		</g>
	</g>
</g>
</svg>
