<?xml version="1.0" encoding="utf-8"?>
<!-- Generator: Adobe Illustrator 16.0.3, SVG Export Plug-In . SVG Version: 6.00 Build 0)  -->
<!DOCTYPE svg PUBLIC "-//W3C//DTD SVG 1.1//EN" "http://www.w3.org/Graphics/SVG/1.1/DTD/svg11.dtd">
<svg version="1.1"
	 id="svg2" xmlns:dc="http://purl.org/dc/elements/1.1/" xmlns:rdf="http://www.w3.org/1999/02/22-rdf-syntax-ns#" xmlns:svg="http://www.w3.org/2000/svg" xmlns:cc="http://creativecommons.org/ns#"
	 xmlns="http://www.w3.org/2000/svg" xmlns:xlink="http://www.w3.org/1999/xlink" x="0px" y="0px" width="64.006px"
	 height="64.006px" viewBox="0 0 64.006 64.006" enable-background="new 0 0 64.006 64.006" xml:space="preserve">
<g id="g10" transform="matrix(1.3333333,0,0,-1.3333333,0,64)">
	<g id="g12" transform="scale(0.1)">
		<path id="path14" fill="#231F20" d="M52.013,479.974V-0.022h376.014v363.318L311.309,479.974H52.013z M68.031,463.956h231.984
			V351.965h112.002V15.989H68.031V463.956z M315.989,452.673l84.69-84.686h-84.69V452.673"/>
		<path id="path16" fill="#231F20" d="M132.008,343.96h71.993c4.42,0,8.005,3.596,8.005,8.009c0,4.42-3.589,8.009-8.005,8.009
			h-71.993c-4.409,0-8.005-3.589-8.005-8.009C124.003,347.556,127.599,343.96,132.008,343.96"/>
		<path id="path18" fill="#231F20" d="M150.348,279.979h71.979c4.424,0,8.02,3.596,8.02,8.005c0,4.427-3.596,8.013-8.02,8.013
			h-71.979c-4.42,0-8.016-3.585-8.016-8.013C142.332,283.575,145.928,279.979,150.348,279.979"/>
		<path id="path20" fill="#231F20" d="M210.348,279.979h71.979c4.424,0,8.02,3.596,8.02,8.005c0,4.427-3.596,8.013-8.02,8.013
			h-71.979c-4.409,0-8.005-3.585-8.005-8.013C202.339,283.575,205.939,279.979,210.348,279.979"/>
		<path id="path22" fill="#231F20" d="M132.008,279.979h40.005c4.406,0,8.002,3.589,8.002,8.005s-3.596,8.013-8.002,8.013h-40.005
			c-4.409,0-8.005-3.596-8.005-8.013S127.599,279.979,132.008,279.979"/>
		<path id="path24" fill="#231F20" d="M252.004,279.979h56.023c4.409,0,7.969,3.589,7.969,8.005s-3.56,8.013-7.969,8.013h-56.023
			c-4.409,0-7.998-3.596-7.998-8.013S247.595,279.979,252.004,279.979"/>
		<path id="path26" fill="#231F20" d="M206.349,293.569c-1.534-1.443-2.347-3.512-2.347-5.585c0-2.065,0.813-4.178,2.347-5.706
			c1.476-1.403,3.589-2.3,5.662-2.3s4.138,0.82,5.662,2.377c1.45,1.494,2.344,3.563,2.344,5.629c0,2.073-0.894,4.186-2.344,5.665
			C214.666,296.62,209.275,296.62,206.349,293.569"/>
		<path id="path28" fill="#231F20" d="M228.025,231.965h-56.016c-4.409,0-8.013-3.545-8.013-8.005c0-4.417,3.604-7.961,8.013-7.961
			h56.016c4.409,0,7.961,3.545,7.961,7.961C235.99,228.42,232.438,231.965,228.025,231.965"/>
		<path id="path30" fill="#231F20" d="M188.079,232.016h-56.023c-4.409,0-8.013-3.552-8.013-8.005c0-4.417,3.604-7.954,8.013-7.954
			h56.023c4.409,0,7.954,3.538,7.954,7.954C196.033,228.464,192.488,232.016,188.079,232.016"/>
		<path id="path32" fill="#231F20" d="M132.008,215.998c2.073,0,4.146,0.864,5.662,2.3c1.531,1.523,2.351,3.589,2.351,5.662
			c0,2.117-0.82,4.182-2.351,5.706c-2.996,2.974-8.32,2.974-11.316,0c-1.531-1.523-2.351-3.516-2.351-5.706
			c0-2.073,0.901-4.138,2.351-5.662C127.83,216.863,129.943,215.998,132.008,215.998"/>
		<path id="path34" fill="#231F20" d="M368.613,179.157c-5.625-1.992-10.151-6.284-12.422-11.792
			c-2.3-5.5-2.153-11.807,0.425-17.197c1.406-2.93-0.22-5.039-1.011-5.801c-0.63-0.645-2.271-1.772-4.497-1.348l-1.758,0.557
			c-0.74,0.308-1.487,0.505-2.256,0.732c-0.557,0.161-1.106,0.396-1.648,0.557c-0.784,0.146-1.604,0.19-2.424,0.308
			c-0.623,0.073-1.245,0.19-1.912,0.19c-0.784,0.044-1.516-0.073-2.307-0.154c-0.667-0.081-1.326-0.037-1.992-0.198
			c-1.443-0.234-2.812-0.645-4.189-1.201c-0.337-0.161-0.645-0.396-0.996-0.557c-0.981-0.461-1.992-0.938-2.9-1.553
			c-1.055-0.747-2.065-1.641-2.959-2.578c-0.117-0.081-0.234-0.161-0.352-0.278c-2.036-2.153-3.604-4.688-4.614-7.5
			c-1.055-3.047-3.706-3.354-4.805-3.354c-1.055,0-3.706,0.308-4.805,3.398c-1.011,2.812-2.578,5.347-4.614,7.456
			c-0.081,0.073-0.146,0.154-0.264,0.234c-0.945,0.981-1.963,1.838-3.047,2.622c-0.864,0.586-1.846,1.047-2.783,1.516
			c-0.381,0.146-0.74,0.432-1.128,0.586c-0.161,0.073-0.359,0.117-0.513,0.146c-1.172,0.469-2.344,0.82-3.545,1.055
			c-0.981,0.205-1.963,0.234-2.93,0.322c-0.352,0-0.703,0.073-1.055,0.073h-0.088c-3.003,0-5.896-0.586-8.357-1.802l-1.838-0.542
			c-2.3-0.513-3.984,0.659-4.6,1.333c-0.791,0.776-2.432,2.842-1.025,5.815c2.549,5.376,2.695,11.66,0.439,17.153
			c-2.278,5.508-6.848,9.8-12.429,11.792c-3.091,1.099-3.391,3.75-3.391,4.805c0,1.099,0.308,3.75,3.391,4.849
			c5.625,1.992,10.151,6.284,12.429,11.777c2.3,5.522,2.139,11.777-0.439,17.212c-1.406,2.915,0.234,5.039,1.025,5.771
			c0.769,0.791,2.842,2.417,5.808,1.011c5.383-2.534,11.653-2.71,17.153-0.425c5.508,2.271,9.8,6.841,11.792,12.426
			c1.099,3.091,3.75,3.398,4.805,3.398c1.106,0,3.75-0.308,4.856-3.398c1.985-5.629,6.277-10.155,11.777-12.426
			c5.522-2.285,11.777-2.153,17.197,0.425c2.93,1.406,5.039-0.22,5.786-1.011c0.791-0.776,2.417-2.856,1.011-5.815
			c-2.542-5.391-2.695-11.646-0.425-17.168c2.271-5.493,6.841-9.829,12.422-11.821c3.091-1.055,3.398-3.706,3.398-4.805
			C372.012,182.907,371.697,180.249,368.613,179.157 M315.989,91.311l-23.972-24.023v62.08c0.066,0,0.146,0,0.183-0.059
			c0.417-0.073,0.784-0.146,1.062-0.264c0.396-0.161,0.938-0.469,1.479-0.952c0.505-0.454,1.055-1.128,1.377-2.065
			c3.047-8.555,10.854-14.062,19.878-14.062c9.067,0,16.875,5.508,19.922,14.062c0.308,0.938,0.82,1.611,1.362,2.065
			c0.557,0.483,1.099,0.791,1.494,0.952c0.234,0.073,0.615,0.19,1.011,0.264c0.073,0,0.161,0.059,0.234,0.059v-62.08L315.989,91.311
			z M373.96,203.884c-1.875,0.659-2.695,2.073-3.003,2.856c-0.308,0.776-0.747,2.344,0.117,4.131
			c3.867,8.21,2.271,17.622-4.146,24.023c-6.401,6.372-15.85,8.013-23.979,4.142c-1.831-0.861-3.398-0.428-4.175-0.11
			c-0.791,0.308-2.197,1.128-2.856,2.999c-3.047,8.555-10.854,14.07-19.922,14.07c-9.023,0-16.831-5.511-19.878-14.07
			c-0.674-1.871-2.08-2.695-2.856-2.999c-0.776-0.319-2.388-0.751-4.175,0.11c-8.174,3.871-17.578,2.271-23.994-4.142
			c-6.401-6.401-7.998-15.813-4.131-23.979c0.85-1.831,0.439-3.398,0.117-4.175c-0.352-0.784-1.172-2.197-3.018-2.856
			c-8.547-3.047-14.055-10.854-14.055-19.922c0-9.023,5.508-16.838,14.055-19.878c1.846-0.667,2.666-2.08,3.018-2.856
			c0.322-0.776,0.732-2.388-0.117-4.175c-3.867-8.174-2.271-17.578,4.131-23.994c3.091-3.076,6.914-5.039,10.898-5.815V28.645
			l40.005,40.005l40.005-40.005v98.599c4.014,0.776,7.852,2.739,10.928,5.815c6.416,6.416,8.013,15.82,4.146,23.994
			c-0.864,1.787-0.425,3.398-0.117,4.175s1.128,2.19,3.003,2.856c8.555,3.04,14.062,10.854,14.062,19.878
			C388.022,193.03,382.515,200.837,373.96,203.884"/>
	</g>
</g>
</svg>
